<svg width="16" height="16" viewBox="0 0 16 16" fill="none" xmlns="http://www.w3.org/2000/svg">
<g clip-path="url(#clip0_272_3664)">
<path fill-rule="evenodd" clip-rule="evenodd" d="M1 1V5.75L1.40464 5.64884C2.37061 2.93937 4.95882 1 8 1C11.3188 1 14.0982 3.30962 14.8185 6.40923L15.5 6.75V13.75L15 14V14L14.5 14.25L11 16H9V16H7V16H5L1.5 14.25L1 14L0.5 13.75V10.125L0 10V6L0.5 5.875V0H3.25V0.5H2.85355L2.35355 1H1ZM9 15H9.5L10.5035 10.1831V10.1831C10.513 10.1377 10.524 10.0928 10.5365 10.0485C10.6115 9.7821 10.7398 9.53817 10.9098 9.32917C11.1638 9.01692 11.5108 8.78264 11.912 8.66799L12.096 8.61543C12.364 8.53884 12.6414 8.49998 12.9202 8.49998H14V8L12.9697 7.99999C12.646 7.99999 12.3226 8.00982 12 8.02941V8.03355C11.4133 8.06917 10.8291 8.13709 10.25 8.23698C10.1666 8.25137 10.0832 8.26643 10 8.28215V8.27801C9.69471 8.33567 9.39095 8.40226 9.08912 8.47771L9 8.49999V15ZM13.9008 6.90782C13.8723 6.75286 13.8379 6.59998 13.7977 6.44943L13.0932 6.27331C9.74921 5.4373 6.25079 5.4373 2.90675 6.27331L2.20228 6.44943C2.16212 6.59999 2.12766 6.75287 2.09916 6.90785L4.35068 6.56146C6.76934 6.18936 9.23067 6.18935 11.6493 6.56144L13.9008 6.90782ZM2 8V8.49998H3.07983C3.35858 8.49998 3.63597 8.53884 3.904 8.61543L4.08797 8.66799C4.62387 8.82111 5.06295 9.1876 5.31295 9.66819C5.39627 9.82838 5.45859 10.0012 5.49649 10.1831V10.1831L6.5 15H7V8.49999L6.91088 8.47771C5.64175 8.16043 4.3385 7.99999 3.03031 7.99999L2 8ZM12.8372 11.5479L13.9739 13.395L10.7639 15H10.0107L10.4897 12.701L10.7538 11.8205C10.8999 11.3335 11.3482 11 11.8566 11C12.2565 11 12.6276 11.2074 12.8372 11.5479ZM5.51031 12.701L5.98927 15H5.23607L2.02613 13.395L3.16281 11.5479C3.37236 11.2074 3.74355 11 4.14336 11C4.65181 11 5.10005 11.3335 5.24615 11.8205L5.51031 12.701ZM8 2C5.42917 2 3.23598 3.61685 2.38183 5.88915L2.78548 5.78824C6.20914 4.93232 9.79086 4.93232 13.2145 5.78824L13.6182 5.88915C12.764 3.61685 10.5708 2 8 2ZM11.75 7.79998V6.83401L11.6113 6.81268C11.1589 6.74307 10.7049 6.68662 10.25 6.64334V7.98334C10.7469 7.89899 11.2474 7.8378 11.75 7.79998Z" fill="black"/>
</g>
<defs>
<clipPath id="clip0_272_3664">
<rect width="15.5" height="16" fill="white"/>
</clipPath>
</defs>
</svg>
