<svg width="16" height="16" viewBox="0 0 16 16" fill="none" xmlns="http://www.w3.org/2000/svg">
<g clip-path="url(#clip0_272_3661)">
<path fill-rule="evenodd" clip-rule="evenodd" d="M7 8.5H5V10C5 10.2761 5.22386 10.5 5.5 10.5H6.5C6.77614 10.5 7 10.2761 7 10V8.5ZM5 7.5C4.44772 7.5 4 7.94772 4 8.5V10.5C4 11.0523 4.44772 11.5 5 11.5H7C7.55228 11.5 8 11.0523 8 10.5V8.5C8 7.94772 7.55228 7.5 7 7.5H5Z" fill="black"/>
<path fill-rule="evenodd" clip-rule="evenodd" d="M6.4472 9.72361C6.32371 9.9706 6.02337 10.0707 5.77638 9.94721L5.36497 9.7415C4.86386 9.49094 4.4921 9.0401 4.3416 8.50043L5.30484 8.2318C5.37946 8.49935 5.56376 8.72286 5.8122 8.84708L6.2236 9.05279C6.47059 9.17629 6.5707 9.47662 6.4472 9.72361Z" fill="black"/>
<path d="M2 7.5H5L4.20243 13.8805C4.08678 14.8057 3.3003 15.5 2.36791 15.5C-nan -nan -nan -nan 2.36791 15.5L-nan -nanC-nan -nan -nan -nan -nan -nanL-nan -nanC-nan -nan -nan -nan -nan -nanL2.36791 15.5C-nan -nan -nan -nan 0.5743 13.2028V13.2028L2 7.5Z" fill="#955820"/>
<path fill-rule="evenodd" clip-rule="evenodd" d="M2.78077 8.5L1.54444 13.4453C1.41051 13.981 1.8157 14.5 2.36791 14.5C2.79598 14.5 3.15706 14.1812 3.21016 13.7565L3.86722 8.5H2.78077ZM2 7.5L0.5743 13.2028C0.282583 14.3697 1.16513 15.5 2.36791 15.5C3.3003 15.5 4.08678 14.8057 4.20243 13.8805L5 7.5H2Z" fill="#462507"/>
<path d="M2.5 5.5H12V8.5H2.5V5.5Z" fill="#565656"/>
<path fill-rule="evenodd" clip-rule="evenodd" d="M11 6.5H3.5V7.5H11V6.5ZM2.5 5.5V8.5H12V5.5H2.5Z" fill="black"/>
<path d="M12 5.5L16 5V9L12 8.5V5.5Z" fill="#565656"/>
<path fill-rule="evenodd" clip-rule="evenodd" d="M13 6.38278V7.61722L15 7.86722V6.13278L13 6.38278ZM12 5.5V8.5L16 9V5L12 5.5Z" fill="black"/>
<path d="M10.5 6C10.5 5.44772 10.9477 5 11.5 5H12.5C13.0523 5 13.5 5.44772 13.5 6V8C13.5 8.55228 13.0523 9 12.5 9H11.5C10.9477 9 10.5 8.55228 10.5 8V6Z" fill="#565656"/>
<path fill-rule="evenodd" clip-rule="evenodd" d="M12.5 6H11.5L11.5 8H12.5V6ZM11.5 5C10.9477 5 10.5 5.44772 10.5 6V8C10.5 8.55228 10.9477 9 11.5 9H12.5C13.0523 9 13.5 8.55228 13.5 8V6C13.5 5.44772 13.0523 5 12.5 5H11.5Z" fill="black"/>
<path d="M7 7.5H11V12.5H7V7.5Z" fill="#565656"/>
<path fill-rule="evenodd" clip-rule="evenodd" d="M10 8.5H8V11.5H10V8.5ZM7 7.5V12.5H11V7.5H7Z" fill="black"/>
<path d="M11 8.5H12V10.5H11V8.5Z" fill="#565656"/>
<path fill-rule="evenodd" clip-rule="evenodd" d="M12 8.5H11V10.5H12V8.5Z" fill="black"/>
<path d="M11 7C11 7.82843 10.3284 8.5 9.5 8.5C8.67157 8.5 8 7.82843 8 7C8 6.17157 8.67157 5.5 9.5 5.5C10.3284 5.5 11 6.17157 11 7Z" fill="#565656"/>
<path fill-rule="evenodd" clip-rule="evenodd" d="M9.5 7.5C9.77614 7.5 10 7.27614 10 7C10 6.72386 9.77614 6.5 9.5 6.5C9.22386 6.5 9 6.72386 9 7C9 7.27614 9.22386 7.5 9.5 7.5ZM9.5 8.5C10.3284 8.5 11 7.82843 11 7C11 6.17157 10.3284 5.5 9.5 5.5C8.67157 5.5 8 6.17157 8 7C8 7.82843 8.67157 8.5 9.5 8.5Z" fill="black"/>
<path d="M4 7C4 7.82843 3.32843 8.5 2.5 8.5C1.67157 8.5 1 7.82843 1 7C1 6.17157 1.67157 5.5 2.5 5.5C3.32843 5.5 4 6.17157 4 7Z" fill="#565656"/>
<path fill-rule="evenodd" clip-rule="evenodd" d="M2.5 7.5C2.77614 7.5 3 7.27614 3 7C3 6.72386 2.77614 6.5 2.5 6.5C2.22386 6.5 2 6.72386 2 7C2 7.27614 2.22386 7.5 2.5 7.5ZM2.5 8.5C3.32843 8.5 4 7.82843 4 7C4 6.17157 3.32843 5.5 2.5 5.5C1.67157 5.5 1 6.17157 1 7C1 7.82843 1.67157 8.5 2.5 8.5Z" fill="black"/>
<path d="M3 1.5H14V4.5H3V1.5Z" fill="#565656"/>
<path fill-rule="evenodd" clip-rule="evenodd" d="M13 2.5H4V3.5H13V2.5ZM3 1.5V4.5H14V1.5H3Z" fill="black"/>
<path d="M0 1H2.5L4 1.5V4.5L2.5 5H0V1Z" fill="#565656"/>
<path fill-rule="evenodd" clip-rule="evenodd" d="M3 2.22076L2.33772 2H1V4H2.33772L3 3.77924V2.22076ZM4 4.5V1.5L2.5 1H0V5H2.5L4 4.5Z" fill="black"/>
<path fill-rule="evenodd" clip-rule="evenodd" d="M13 3H4V2.5H13V3Z" fill="#C4C4C4"/>
<path d="M5 4.5H9V6.5H5V4.5Z" fill="#565656"/>
<path fill-rule="evenodd" clip-rule="evenodd" d="M5 4.5V6.5H9V4.5H5Z" fill="black"/>
<path d="M9 0.5H11V1.5H9V0.5Z" fill="#565656"/>
<path fill-rule="evenodd" clip-rule="evenodd" d="M9 0.5V1.5H11V0.5H9Z" fill="black"/>
<path d="M5 1H6V5H5V1Z" fill="#565656"/>
<path fill-rule="evenodd" clip-rule="evenodd" d="M6 1H5V5H6V1Z" fill="black"/>
<path d="M8 1H9V5H8V1Z" fill="#565656"/>
<path fill-rule="evenodd" clip-rule="evenodd" d="M9 1H8V5H9V1Z" fill="black"/>
<path fill-rule="evenodd" clip-rule="evenodd" d="M4 13.5H1V13H4V13.5Z" fill="#462507"/>
<path fill-rule="evenodd" clip-rule="evenodd" d="M4 12.5H1V12H4V12.5Z" fill="#462507"/>
<path fill-rule="evenodd" clip-rule="evenodd" d="M4 11.5H2V11H4V11.5Z" fill="#462507"/>
<path fill-rule="evenodd" clip-rule="evenodd" d="M4 10.5H2V10H4V10.5Z" fill="#462507"/>
<path fill-rule="evenodd" clip-rule="evenodd" d="M4 9.5H2V9H4V9.5Z" fill="#462507"/>
<path fill-rule="evenodd" clip-rule="evenodd" d="M10 11.5H8V11H10V11.5Z" fill="black"/>
<path fill-rule="evenodd" clip-rule="evenodd" d="M10 10.5H9V10H10V10.5Z" fill="black"/>
<path fill-rule="evenodd" clip-rule="evenodd" d="M10 9.5H9V9H10V9.5Z" fill="black"/>
<path d="M14.5335 7.70801C14.4139 7.77704 14.261 7.73607 14.192 7.6165C14.123 7.49693 14.1639 7.34403 14.2835 7.27499C14.4031 7.20596 14.556 7.24693 14.625 7.3665C14.694 7.48607 14.6531 7.63897 14.5335 7.70801Z" fill="black"/>
<path d="M14.5335 6.70801C14.4139 6.77704 14.261 6.73607 14.192 6.6165C14.123 6.49693 14.1639 6.34403 14.2835 6.27499C14.4031 6.20596 14.556 6.24693 14.625 6.3665C14.694 6.48607 14.6531 6.63897 14.5335 6.70801Z" fill="black"/>
<path d="M14.0335 7.20801C13.9139 7.27704 13.761 7.23607 13.692 7.1165C13.623 6.99693 13.6639 6.84403 13.7835 6.77499C13.9031 6.70596 14.056 6.74693 14.125 6.8665C14.194 6.98607 14.1531 7.13897 14.0335 7.20801Z" fill="black"/>
<path fill-rule="evenodd" clip-rule="evenodd" d="M11 6.5C11 6.36193 11.1119 6.25 11.25 6.25H11.75C11.8881 6.25 12 6.36193 12 6.5C12 6.63807 11.8881 6.75 11.75 6.75H11.25C11.1119 6.75 11 6.63807 11 6.5Z" fill="black"/>
<path fill-rule="evenodd" clip-rule="evenodd" d="M11 7.5C11 7.36193 11.1119 7.25 11.25 7.25H11.75C11.8881 7.25 12 7.36193 12 7.5C12 7.63807 11.8881 7.75 11.75 7.75H11.25C11.1119 7.75 11 7.63807 11 7.5Z" fill="black"/>
<path fill-rule="evenodd" clip-rule="evenodd" d="M8.5 11.5V8.5H9V11.5H8.5Z" fill="black"/>
<path fill-rule="evenodd" clip-rule="evenodd" d="M5 8.5V6.5H6V8.5H5Z" fill="black"/>
<path d="M3 2.22146L2.32576 2H1V2.5H2.24574L3 2.80068V2.22146Z" fill="#C4C4C4"/>
</g>
<defs>
<clipPath id="clip0_272_3661">
<rect width="16" height="15" fill="white" transform="translate(0 0.5)"/>
</clipPath>
</defs>
</svg>
