<svg width="16" height="16" viewBox="0 0 16 16" fill="none" xmlns="http://www.w3.org/2000/svg">
<g clip-path="url(#clip0_272_3672)">
<path d="M6.50002 5H9.50002V9H6.50002V5Z" fill="#C4C4C4"/>
<path fill-rule="evenodd" clip-rule="evenodd" d="M4.00002 6L5.00002 9L5.9487 8.68378L4.9487 5.68378L4.00002 6ZM10 6L11 9L11.9487 8.68378L10.9487 5.68378L10 6Z" fill="white"/>
<path fill-rule="evenodd" clip-rule="evenodd" d="M11.7848 14.089L11.9943 14.4242C11.9981 14.4489 12 14.4742 12 14.5C12 14.7761 11.7762 15 11.5 15C11.2239 15 11 14.7761 11 14.5C11 14.2239 11.2239 14 11.5 14C11.6058 14 11.704 14.0329 11.7848 14.089ZM4.00572 14.4242L4.21524 14.089C4.29605 14.0329 4.3942 14 4.50002 14C4.77616 14 5.00002 14.2239 5.00002 14.5C5.00002 14.7761 4.77616 15 4.50002 15C4.22387 15 4.00002 14.7761 4.00002 14.5C4.00002 14.4742 4.00196 14.4489 4.00572 14.4242ZM6.25002 12.7201V14H6.75002V11.9201L6.25002 12.7201ZM7.25002 11.5V14H7.75002V11.5H7.25002ZM8.25002 11.5V14H8.75002V11.5H8.25002ZM9.25002 11.9201V14H9.75002V12.7201L9.25002 11.9201ZM8.75001 10.25V10.5H7.25001V10.25C7.25001 9.83579 7.5858 9.5 8.00001 9.5C8.41423 9.5 8.75001 9.83579 8.75001 10.25Z" fill="#C4C4C4"/>
<path d="M6.00002 14.5C6.00002 15.3284 5.32844 16 4.50002 16C3.67159 16 3.00002 15.3284 3.00002 14.5C3.00002 13.6716 3.67159 13 4.50002 13C5.32844 13 6.00002 13.6716 6.00002 14.5Z" fill="white"/>
<path d="M13 14.5C13 15.3284 12.3284 16 11.5 16C10.6716 16 10 15.3284 10 14.5C10 13.6716 10.6716 13 11.5 13C12.3284 13 13 13.6716 13 14.5Z" fill="white"/>
<path fill-rule="evenodd" clip-rule="evenodd" d="M9.00002 11.5H7.00002V10.5H9.00002V11.5Z" fill="#C4C4C4"/>
<path fill-rule="evenodd" clip-rule="evenodd" d="M12.1657 13.1554L13.1396 10.7123L10.0528 10L9.71953 9.9231C9.72073 9.92944 9.72189 9.93579 9.72302 9.94215C9.74076 10.0421 9.75001 10.145 9.75001 10.25V10.8333L11.1325 13.0453C11.2501 13.0157 11.3732 13 11.5 13C11.7391 13 11.9651 13.0559 12.1657 13.1554ZM4.8675 13.0453L6.25001 10.8333L6.25001 10.25C6.25001 10.1383 6.26048 10.029 6.28049 9.9231L5.94726 10L2.86046 10.7123L3.83429 13.1555C4.03488 13.0559 4.26091 13 4.50001 13C4.6268 13 4.74991 13.0157 4.8675 13.0453ZM4.84977 9.22698C4.34384 9.16524 3.84553 9.03821 3.36933 8.84773C3.20844 8.78337 3.07289 8.68093 2.96957 8.55467L2.65524 9.73342L4.84977 9.22698ZM13.3448 9.73341L11.1503 9.22698C11.6562 9.16524 12.1545 9.03821 12.6307 8.84773C12.7916 8.78337 12.9271 8.68093 13.0305 8.55467L13.3448 9.73341ZM8.50118 7.75C8.5004 7.77476 8.50001 7.79961 8.50001 7.82456V8H7.50001V7.82456C7.50001 7.79961 7.49962 7.77476 7.49884 7.75H8.50118ZM8.65049 7C8.61966 7.08125 8.59325 7.16468 8.57156 7.25H7.42846C7.40677 7.16468 7.38036 7.08125 7.34953 7H8.65049ZM12.7306 4.05387C12.2087 2.7084 10.9799 1.71548 9.50001 1.53095V4.01944C10.4902 3.4219 11.7421 3.42852 12.7306 4.05387ZM3.26942 4.05387C4.25795 3.42852 5.50986 3.4219 6.50001 4.01944V1.53095C5.02015 1.71548 3.79134 2.7084 3.26942 4.05387ZM7.22362 5.44721C7.39301 5.36252 7.50001 5.18939 7.50001 5V1H8.50001V5C8.50001 5.18939 8.60701 5.36252 8.7764 5.44721C8.9458 5.53191 9.1485 5.51363 9.30001 5.4L9.84295 4.9928C10.5465 4.46513 11.5064 4.43849 12.2381 4.92632C12.9659 5.41151 13.4722 6.15847 13.6573 7.00465C13.6782 7.1003 13.695 7.19723 13.7076 7.29518C13.6675 7.19412 13.6224 7.09562 13.5724 7C13.2308 6.34616 12.6643 5.82718 11.9656 5.5477C11.0115 5.16608 9.93071 5.27861 9.07573 5.84859L8.84862 6H7.1514L6.92429 5.84859C6.06931 5.27861 4.98853 5.16608 4.03447 5.5477C3.33577 5.82718 2.76921 6.34616 2.4276 7C2.42659 7.00194 2.42558 7.00387 2.42457 7.00581C2.37582 7.09961 2.33168 7.19617 2.29245 7.29518C2.30523 7.19564 2.32239 7.09716 2.34379 7C2.52973 6.15573 3.03547 5.41062 3.76192 4.92632C4.49367 4.43849 5.45351 4.46513 6.15708 4.9928L6.70001 5.4C6.85152 5.51363 7.05423 5.53191 7.22362 5.44721ZM4.33334 7L4.28218 6.84652C4.221 6.90237 4.16491 6.96408 4.11484 7.03098C4.03138 7.14249 3.96463 7.26842 3.91887 7.40569L3.74687 7.92171C4.06591 8.04882 4.39682 8.14163 4.73315 8.19943L4.33334 7ZM5.38744 7L5.80896 8.26457C6.04062 8.25306 6.27165 8.225 6.50001 8.18017V7.82456C6.50001 7.51283 6.39233 7.22625 6.21213 7C5.97827 6.70637 5.62228 6.51433 5.22102 6.50077L5.38744 7ZM9.78789 7C9.90373 6.85456 10.0495 6.73405 10.2159 6.6478L10.3333 7L10.7534 8.26016C10.3349 8.28748 9.9131 8.26126 9.50001 8.18017V7.82456C9.50001 7.51283 9.6077 7.22625 9.78789 7ZM12.2532 7.92171C12.0887 7.98725 11.921 8.04367 11.7511 8.09088L11.3874 7L11.2434 6.56787C11.4869 6.64906 11.7018 6.79954 11.8613 7C11.8686 7.00917 11.8757 7.01844 11.8828 7.02782C11.9674 7.1401 12.035 7.26712 12.0812 7.40569L12.2532 7.92171ZM7.29269 10C7.39565 9.7087 7.67345 9.5 8.00001 9.5C8.32656 9.5 8.60437 9.7087 8.70733 10H7.29269Z" fill="#565656"/>
<path fill-rule="evenodd" clip-rule="evenodd" d="M7.50001 5V1H8.50001V5C8.50001 5.18939 8.60701 5.36252 8.7764 5.44721C8.9458 5.53191 9.1485 5.51363 9.30001 5.4L9.84295 4.9928C10.5465 4.46513 11.5064 4.43849 12.2381 4.92632C13.0482 5.46635 13.5838 6.33069 13.7076 7.29518C13.3937 6.50308 12.7664 5.86805 11.9656 5.5477C11.0115 5.16608 9.93071 5.27861 9.07573 5.84859L8.84862 6H7.1514L6.92429 5.84859C6.06931 5.27861 4.98853 5.16608 4.03447 5.5477C3.23359 5.86805 2.60633 6.50308 2.29245 7.29518C2.41624 6.33069 2.95187 5.46635 3.76192 4.92632C4.49367 4.43849 5.45351 4.46513 6.15708 4.9928L6.70001 5.4C6.85152 5.51363 7.05423 5.53191 7.22362 5.44721C7.39301 5.36252 7.50001 5.18939 7.50001 5Z" fill="#C4C4C4"/>
<path d="M2.00002 8L5.00002 9V10H2.00002V8Z" fill="#C4C4C4"/>
<path d="M14 8L11 9V10H14V8Z" fill="#C4C4C4"/>
<path d="M6.25002 10.25V10.25C-nan -nan -nan -nan 8.00002 8.5L-nan -nanC-nan -nan -nan -nan -nan -nanL-nan -nanC-nan -nan -nan -nan -nan -nanL8.00002 8.5C-nan -nan -nan -nan 9.75002 10.25V10.25V11.5H6.25002V10.25Z" fill="white"/>
<path fill-rule="evenodd" clip-rule="evenodd" d="M6.50001 0.5C6.50001 0.223858 6.72387 0 7.00001 0H9.00001C9.27615 0 9.50001 0.223858 9.50001 0.5V0.524688C11.9594 0.768875 13.8946 2.79521 13.9958 5.29404C14.3768 5.86209 14.6233 6.51843 14.7051 7.21358L15.322 12.4573L15.8323 14.3712C15.917 14.6886 15.6777 15 15.3492 15H12.9147C12.8537 15.1725 12.7621 15.3305 12.6463 15.4675L12.6181 15.5C12.3434 15.8069 11.9443 16 11.5 16C11.0558 16 10.6566 15.8069 10.382 15.5H5.61806C5.3434 15.8069 4.94426 16 4.50001 16C4.05576 16 3.65662 15.8069 3.38196 15.5L3.35367 15.4675C3.23795 15.3305 3.14633 15.1725 3.08536 15H0.650816C0.3223 15 0.0830526 14.6886 0.167699 14.3712L0.678051 12.4573L1.29496 7.21358C1.37675 6.51843 1.62326 5.86209 2.00418 5.29405C2.10542 2.79521 4.04058 0.768875 6.50001 0.524688V0.5ZM6.25001 14V12.7201L6.75001 11.9201V14H6.25001ZM7.25001 14V11.5H7.75001V14H7.25001ZM8.25001 14V11.5H8.75001V14H8.25001ZM9.25001 14V11.9201L9.75001 12.7201V14H9.25001ZM13.1396 10.7123L12.1657 13.1554C11.9651 13.0559 11.7391 13 11.5 13C11.3732 13 11.2501 13.0157 11.1325 13.0453L9.75001 10.8333V10.25C9.75001 10.1383 9.73954 10.029 9.71953 9.9231L13.1396 10.7123ZM6.25001 10.8333L4.8675 13.0453C4.74991 13.0157 4.6268 13 4.50001 13C4.26091 13 4.03488 13.0559 3.83429 13.1555L2.86046 10.7123L6.28049 9.9231C6.26048 10.029 6.25001 10.1383 6.25001 10.25L6.25001 10.8333ZM3.36933 8.84773C3.84553 9.03821 4.34384 9.16524 4.84977 9.22698L2.65524 9.73342L2.96957 8.55467C3.07288 8.68093 3.20844 8.78337 3.36933 8.84773ZM11.1503 9.22698L13.3448 9.73341L13.0305 8.55467C12.9271 8.68093 12.7916 8.78337 12.6307 8.84773C12.1545 9.03821 11.6562 9.16524 11.1503 9.22698ZM8.50001 8V7.82456C8.50001 7.79961 8.5004 7.77476 8.50118 7.75H7.49884C7.49962 7.77476 7.50001 7.79961 7.50001 7.82456V8H8.50001ZM7.42846 7.25H8.57156C8.59325 7.16468 8.61966 7.08125 8.65049 7H7.34953C7.38036 7.08125 7.40677 7.16468 7.42846 7.25ZM9.50001 4.01944V1.53095C10.9799 1.71548 12.2087 2.7084 12.7306 4.05387C11.7421 3.42852 10.4902 3.4219 9.50001 4.01944ZM6.50001 4.01944C5.50986 3.4219 4.25795 3.42852 3.26942 4.05387C3.79134 2.7084 5.02015 1.71548 6.50001 1.53095V4.01944ZM7.50001 1V5C7.50001 5.18939 7.39301 5.36252 7.22362 5.44721C7.05423 5.53191 6.85152 5.51363 6.70001 5.4L6.15708 4.9928C5.45351 4.46513 4.49367 4.43849 3.76192 4.92632C2.95187 5.46635 2.41624 6.33069 2.29245 7.29518C2.60633 6.50308 3.23359 5.86805 4.03447 5.5477C4.98853 5.16608 6.06931 5.27861 6.92429 5.84859L7.1514 6H8.84862L9.07573 5.84859C9.93071 5.27861 11.0115 5.16608 11.9656 5.5477C12.7664 5.86805 13.3937 6.50308 13.7076 7.29518C13.5838 6.33069 13.0482 5.46635 12.2381 4.92632C11.5064 4.43849 10.5465 4.46513 9.84295 4.9928L9.30001 5.4C9.1485 5.51363 8.9458 5.53191 8.7764 5.44721C8.60701 5.36252 8.50001 5.18939 8.50001 5V1H7.50001ZM6.50001 8.18017V7.82456C6.50001 7.09302 5.90699 6.5 5.17546 6.5C4.60533 6.5 4.09916 6.86482 3.91887 7.40569L3.74687 7.92171C4.6197 8.26947 5.58138 8.36051 6.50001 8.18017ZM9.50001 8.18017V7.82456C9.50001 7.09302 10.093 6.5 10.8246 6.5C11.3947 6.5 11.9009 6.86482 12.0811 7.40569L12.2532 7.92171C11.3803 8.26947 10.4186 8.36051 9.50001 8.18017ZM8.75001 10.5V10.25C8.75001 9.83579 8.41422 9.5 8.00001 9.5C7.5858 9.5 7.25001 9.83579 7.25001 10.25V10.5H8.75001ZM4.00001 14.5C4.00001 14.2239 4.22387 14 4.50001 14C4.77615 14 5.00001 14.2239 5.00001 14.5C5.00001 14.7761 4.77615 15 4.50001 15C4.22387 15 4.00001 14.7761 4.00001 14.5ZM11.5 14C11.2239 14 11 14.2239 11 14.5C11 14.7761 11.2239 15 11.5 15C11.7762 15 12 14.7761 12 14.5C12 14.2239 11.7762 14 11.5 14Z" fill="black"/>
<path fill-rule="evenodd" clip-rule="evenodd" d="M7.50002 5V1H8.00002V6H7.1514L7.00002 5.89908V5.5C7.07626 5.50001 7.15285 5.4826 7.22362 5.44721C7.39301 5.36252 7.50002 5.18939 7.50002 5Z" fill="#565656"/>
<path fill-rule="evenodd" clip-rule="evenodd" d="M11.992 3.71381C11.662 3.61227 11.3191 3.56777 10.9782 3.57989C10.9061 2.88868 10.6579 2.24983 10.2793 1.70895C10.8651 1.90654 11.3901 2.23608 11.819 2.6622C11.9125 2.99974 11.9715 3.35162 11.992 3.71381Z" fill="#C4C4C4"/>
<rect x="4.00002" y="14" width="1" height="1" rx="0.5" fill="#C4C4C4"/>
<rect x="11" y="14" width="1" height="1" rx="0.5" fill="#C4C4C4"/>
</g>
<defs>
<clipPath id="clip0_272_3672">
<rect width="15.6989" height="16" fill="white" transform="translate(0.150543)"/>
</clipPath>
</defs>
</svg>
