<svg width="16" height="16" viewBox="0 0 16 16" fill="none" xmlns="http://www.w3.org/2000/svg">
<g clip-path="url(#clip0_272_3666)">
<path d="M3.5 7.5L12 7L14 11.5V15H2V13L3 12L3.5 7.5Z" fill="#955820"/>
<path d="M6.5 0.5H9.5L11.5 2.5H13.5L15 4.5L12 5L11.5 6.5L9.5 8V10.5H7.5V8L5 7.5L4.5 5L1.5 4.5L2 3L4.5 2.5L6.5 0.5Z" fill="#69B582"/>
<path fill-rule="evenodd" clip-rule="evenodd" d="M7.27914 15.9804C7.37114 15.9933 7.4654 16 7.56156 16H13.6667C14.4031 16 15 15.403 15 14.6667C15 13.1939 13.8061 12 12.3333 12H11L10.25 13H12.3333C13.2538 13 14 13.7462 14 14.6667C14 14.8508 13.8508 15 13.6667 15H8.75L8.6 15.2C8.27873 15.6284 7.80187 15.9068 7.27914 15.9804Z" fill="#462507"/>
<path fill-rule="evenodd" clip-rule="evenodd" d="M2.46761 12.0143C1.59562 12.4183 1 13.3008 1 14.3121C1 15.2443 1.75569 16 2.68789 16H7C7.62951 16 8.22229 15.7036 8.6 15.2L11 12L6.5 11.5L6.39883 11.5092C6.24489 11.865 6.07806 12.2151 5.89865 12.5588L6.48995 12.505L9.14959 12.8006L7.8 14.6C7.61115 14.8518 7.31476 15 7 15H4.34255C4.18924 15.1737 3.91915 15.1675 3.7715 15H2.68789C2.30798 15 2 14.692 2 14.3121C2 13.7447 2.30983 13.2444 2.77551 12.9797C2.65073 12.6645 2.54797 12.3419 2.46761 12.0143Z" fill="#462507"/>
<path fill-rule="evenodd" clip-rule="evenodd" d="M4.19003 15.1046C4.29277 15.1486 4.41851 15.1393 4.51763 15.0538C4.60768 14.9762 4.69619 14.8971 4.78314 14.8166C4.84837 14.7562 4.91272 14.695 4.97619 14.6331L5 14.6097C6.54016 13.0958 7.55186 11.1224 7.8801 8.98363C7.90116 8.84637 7.91942 8.70842 7.93481 8.56986L8 7.98315C7.83258 7.98315 7.66524 7.98579 7.49802 7.99106L7.2368 9.03596C6.74995 10.9834 5.901 12.8218 4.73426 14.4552L4.36795 14.968C4.32063 15.0343 4.25818 15.0795 4.19003 15.1046Z" fill="#462507"/>
<path fill-rule="evenodd" clip-rule="evenodd" d="M10 9.48315H10.0657C10.4651 9.48315 10.7033 9.03808 10.4818 8.7058L10 7.98315H8C7.44772 7.98315 7 8.43087 7 8.98315L6.5 11L10.0699 10.9866C10.4684 10.9851 10.7051 10.5409 10.4841 10.2093L10 9.48315ZM8.46482 8.98315L8 8.98315V9.98315H9.13148L8.46482 8.98315Z" fill="#24452F"/>
<path fill-rule="evenodd" clip-rule="evenodd" d="M3.99999 6.24158L3.29945 7.05493C2.77744 7.66102 2.44015 8.40407 2.32755 9.196C2.11428 10.6961 2.36433 12.2256 3.04424 13.5797L3.71593 14.9174C3.84493 15.1743 4.20084 15.202 4.36793 14.968L4.73424 14.4552C5.90098 12.8218 6.74994 10.9834 7.23679 9.03596L7.352 8.57511C7.11404 8.52248 6.881 8.4405 6.65835 8.32918L6.46778 8.23389C6.44967 8.22484 6.43145 8.21604 6.41313 8.2075L6.26664 8.79342C5.84236 10.4906 5.12473 12.0994 4.14712 13.5476L3.93791 13.131C3.34943 11.959 3.133 10.6352 3.3176 9.33676C3.40327 8.73415 3.65993 8.16873 4.05716 7.70754L4.3041 7.42082C4.11335 7.17201 3.99999 6.86075 3.99999 6.523V6.24158ZM4.98227 7.91511C5.13693 7.97008 5.30346 8 5.47698 8C5.48936 8 5.50173 8.0001 5.51409 8.00031C5.20367 8.53564 4.82465 9.02889 4.3862 9.46734L4.17676 9.67678C4.07913 9.77441 3.92084 9.77441 3.82321 9.67678C3.72558 9.57914 3.72558 9.42085 3.82321 9.32322L4.03264 9.11379C4.39477 8.75166 4.7133 8.34934 4.98227 7.91511ZM5.57904 8.00235C5.75137 8.0103 5.92184 8.03833 6.08702 8.08564L5.81277 8.7296C5.41903 9.6541 4.9404 10.5401 4.383 11.3762L4.208 11.6387C4.13141 11.7536 3.9762 11.7846 3.86131 11.708C3.74643 11.6314 3.71539 11.4762 3.79198 11.3613L3.96698 11.0988C4.50722 10.2885 4.97113 9.42974 5.35275 8.53369L5.57904 8.00235Z" fill="#462507"/>
<path fill-rule="evenodd" clip-rule="evenodd" d="M11.75 7.34545C11.7308 7.37411 11.7105 7.40206 11.6894 7.42925C11.71 7.4409 11.7302 7.45328 11.75 7.46637V8.35087C11.75 8.75393 11.685 9.15435 11.5576 9.53673L11.2628 10.4209C11.2192 10.5519 11.29 10.6935 11.4209 10.7372C11.5519 10.7808 11.6935 10.71 11.7372 10.579L12.0319 9.69484C12.1764 9.26148 12.25 8.80767 12.25 8.35087V8.27319L13.581 12H10C9.44772 12 9 11.5523 9 11V10.9831H8V11C8 12.1045 8.89543 13 10 13H13.581C14.2725 13 14.7553 12.3149 14.5227 11.6636L13.0812 7.62737C12.8899 7.09158 12.4899 6.6827 12 6.46796V6.52299C12 6.60039 11.994 6.6764 11.9826 6.75058C11.8526 6.75953 11.75 6.86777 11.75 6.99998V7.34545Z" fill="#462507"/>
<path fill-rule="evenodd" clip-rule="evenodd" d="M7.25 1.25C7.11193 1.25 7 1.36193 7 1.5C7 1.63807 7.11193 1.75 7.25 1.75L10.75 1.75C10.8881 1.75 11 1.63807 11 1.5C11 1.36193 10.8881 1.25 10.75 1.25H7.25ZM5.25 2C5.11193 2 5 2.11193 5 2.25C5 2.38807 5.11193 2.5 5.25 2.5L8.75 2.5C8.88807 2.5 9 2.38807 9 2.25C9 2.11193 8.88807 2 8.75 2L5.25 2ZM3.25 4C3.11193 4 3 4.11193 3 4.25C3 4.38807 3.11193 4.5 3.25 4.5H4.75C4.88807 4.5 5 4.38807 5 4.25C5 4.11193 4.88807 4 4.75 4H3.25ZM11.25 4C11.1119 4 11 4.11193 11 4.25C11 4.38807 11.1119 4.5 11.25 4.5H12.75C12.8881 4.5 13 4.38807 13 4.25C13 4.11193 12.8881 4 12.75 4H11.25ZM9 5.75C9 5.61193 9.11193 5.5 9.25 5.5L10.25 5.5C10.3881 5.5 10.5 5.61193 10.5 5.75C10.5 5.88807 10.3881 6 10.25 6L9.25 6C9.11193 6 9 5.88807 9 5.75ZM5.75 5.5C5.61193 5.5 5.5 5.61193 5.5 5.75C5.5 5.88807 5.61193 6 5.75 6H6.25C6.38807 6 6.5 5.88807 6.5 5.75C6.5 5.61193 6.38807 5.5 6.25 5.5H5.75ZM7 6.25C6.86193 6.25 6.75 6.36193 6.75 6.5C6.75 6.63807 6.86193 6.75 7 6.75H9C9.13807 6.75 9.25 6.63807 9.25 6.5C9.25 6.36193 9.13807 6.25 9 6.25H7ZM7 5.5C7 5.22386 7.22386 5 7.5 5H8V4.5H7.70711C7.44189 4.5 7.18754 4.39464 7 4.20711L6.99832 4.20543C7 4.28157 7 4.37815 7 4.5V5H6V4.5C6 4.22408 6.22351 4.00035 6.49935 4H5.5C5.22386 4 5 3.77614 5 3.5C5 3.22386 5.22386 3 5.5 3H6.79289C7.05811 3 7.31246 3.10536 7.5 3.29289L7.70711 3.5H8.29289L8.5 3.29289C8.68754 3.10536 8.94189 3 9.20711 3H10.5C10.7761 3 11 3.22386 11 3.5C11 3.77614 10.7761 4 10.5 4H9.5L9.20711 4L9.2063 4.00081C9.28564 4 9.38246 4 9.5 4C9.77614 4 10 4.22386 10 4.5V5H9.5H9C9 5.55229 8.55228 6 8 6H7.5C7.22386 6 7 5.77614 7 5.5Z" fill="#24452F"/>
<path fill-rule="evenodd" clip-rule="evenodd" d="M4.99999 4.18969V6.52301C4.99999 6.78644 5.21355 7 5.47699 7C5.97618 7 6.46851 7.11622 6.915 7.33947L7.10557 7.43475C7.66862 7.71628 8.33137 7.71628 8.89442 7.43475L9.08499 7.33947C9.53148 7.11622 10.0238 7 10.523 7C10.7864 7 11 6.78644 11 6.52301V4.18969L12.3218 4.63891C12.5717 4.72386 12.8489 4.70753 13.0909 4.58652L13.4495 4.40724C13.7222 4.27088 14.0137 4.18434 14.3107 4.14859C13.8912 3.44295 13.1268 3 12.2909 3C12.1072 3 11.9247 3.02154 11.7472 3.06375L11.3751 3.15222C11.1555 3.20444 10.9282 3.10304 10.8203 2.90477L10.6375 2.56884C10.1278 1.63212 9.13697 1 7.99999 1C6.86302 1 5.87222 1.63212 5.3625 2.56884L5.17971 2.90477C5.07182 3.10304 4.84446 3.20444 4.62486 3.15222L4.25279 3.06375C4.07526 3.02154 3.89282 3 3.70911 3C2.87319 3 2.10877 3.44295 1.68923 4.14858C1.98628 4.18434 2.27781 4.27088 2.55054 4.40724L2.9091 4.58652C3.15112 4.70753 3.42825 4.72386 3.67821 4.63891L4.99999 4.18969ZM13.8967 5.30166C14.283 5.10851 14.7302 5.07673 15.1399 5.21331C15.4732 5.32439 15.7812 4.98959 15.6429 4.66671L15.3702 4.0305C14.8423 2.79868 13.6311 2 12.2909 2C12.029 2 11.7689 2.0307 11.5159 2.09087C10.8381 0.845336 9.51777 0 7.99999 0C6.48222 0 5.16189 0.845336 4.48413 2.09087C4.23106 2.0307 3.97099 2 3.70911 2C2.36893 2 1.1577 2.79868 0.629778 4.0305L0.35712 4.66671C0.218742 4.98959 0.526809 5.32439 0.860067 5.21331C1.26981 5.07673 1.71702 5.10851 2.10332 5.30166L2.46188 5.48094C2.63427 5.56714 2.81552 5.62675 2.99999 5.66014C3.33385 5.72055 3.67829 5.69506 3.99999 5.58573V6.52301C3.99999 6.55611 4.00108 6.58896 4.00323 6.62153C4.05392 7.39131 4.69437 8 5.47699 8C5.82093 8 6.16015 8.08008 6.46779 8.2339L6.65835 8.32918C7.50294 8.75147 8.49705 8.75147 9.34163 8.32918L9.5322 8.2339C9.83984 8.08008 10.1791 8 10.523 8C11.3056 8 11.9461 7.39131 11.9968 6.62153C11.9989 6.58896 12 6.55611 12 6.52301V5.58573C12.3217 5.69506 12.6661 5.72055 13 5.66014C13.1845 5.62675 13.3657 5.56714 13.5381 5.48094L13.8967 5.30166Z" fill="#24452F"/>
</g>
<defs>
<clipPath id="clip0_272_3666">
<rect width="15.3536" height="16" fill="white" transform="translate(0.323181)"/>
</clipPath>
</defs>
</svg>
