<svg width="15" height="16" viewBox="0 0 15 16" fill="none" xmlns="http://www.w3.org/2000/svg">
<g clip-path="url(#clip0_272_3670)">
<path fill-rule="evenodd" clip-rule="evenodd" d="M12 0H5V5H9.6L10 6H13L12 0Z" fill="#C4C4C4"/>
<path fill-rule="evenodd" clip-rule="evenodd" d="M10 4H10.277L10.677 5H11.8195L11.1529 1H8.99155L8.68479 1.51127C9.42603 1.60233 10 2.23414 10 3C10 3.38418 9.85557 3.73462 9.61805 4H10ZM8.07113 1.5622L8.40845 1H6V2.75001H7.02073C7.11589 2.18282 7.52934 1.72357 8.07113 1.5622ZM7.02074 3.25001H6V4H7.38194C7.19709 3.79346 7.06862 3.5354 7.02074 3.25001ZM8.5 4C9.05228 4 9.5 3.55228 9.5 3C9.5 2.44772 9.05228 2 8.5 2C7.94771 2 7.5 2.44772 7.5 3C7.5 3.55228 7.94771 4 8.5 4ZM12 0L12.131 0.785989L13.1118 1.27639L13 1.75H12.2917L12.7917 4.75H14.25V5.25H12.875L13 6H10C10.5523 6 11 6.44772 11 7C11 7.50376 10.6275 7.92052 10.1429 7.98986L9.98507 8.62126C9.96309 8.70918 9.91763 8.78947 9.85355 8.85355L8.96612 9.74098C8.98822 9.82359 9 9.91042 9 10C9 10.2037 8.93912 10.3931 8.83457 10.5511L10.3878 13.6576L11.5013 14.3999C11.6065 14.3212 11.7253 14.2582 11.8548 14.2151C12.2571 14.081 12.6999 14.16 13.0311 14.4249L15 16H11V15.401C11 15.3576 11.0022 15.3145 11.0066 15.272L9.61217 14.3424L9.44099 14L7.75 13.1545L7.75 10.9685C7.31869 10.8575 7 10.466 7 10C7 9.44771 7.44771 9 8 9C8.08958 9 8.1764 9.01178 8.25902 9.03387L9.04852 8.24437L9.10961 8H6.75L6.9 8.2C7.006 8.34133 7.02954 8.52812 6.96194 8.69134C6.89433 8.85456 6.7456 8.96999 6.57071 8.99497L3.92833 9.37246C3.81411 9.6569 3.57294 9.87669 3.27495 9.96172L2.52993 12.9418L3.13703 14.156C3.45493 14.1272 3.77611 14.2209 4.03107 14.4249L6 16H2V15.401C2 15.2619 2.02302 15.1268 2.06598 15C2.11043 14.8688 2.17622 14.7466 2.25994 14.6379L1.47007 13.0582L1.54322 12.7655L0.690582 11.4866L2.19989 9.59995C2.07437 9.43283 2 9.2251 2 9C2 8.44771 2.44771 8 3 8C3.31925 8 3.60357 8.14961 3.78666 8.38254L5.59333 8.12445L5.5 8H5C4.44771 8 4 7.55228 4 7C4 6.45057 4.4431 6.00463 4.99145 6.00004C4.99602 5.99996 5.00059 5.99995 5.00516 6H8V5H5V0H12ZM9 3C9 3.27614 8.77614 3.5 8.5 3.5C8.22385 3.5 8 3.27614 8 3C8 2.72386 8.22385 2.5 8.5 2.5C8.77614 2.5 9 2.72386 9 3ZM2.10481 10.5192L1.30941 11.5134L1.70711 12.11L2.10481 10.5192ZM8.25 12.8455V11.618L9.06831 13.2547L8.25 12.8455Z" fill="#565656"/>
</g>
<defs>
<clipPath id="clip0_272_3670">
<rect width="14.3094" height="16" fill="white" transform="translate(0.690582)"/>
</clipPath>
</defs>
</svg>
