<svg width="16" height="16" viewBox="0 0 16 16" fill="none" xmlns="http://www.w3.org/2000/svg">
<path fill-rule="evenodd" clip-rule="evenodd" d="M9 1L8 0H4L3 1V1.25L0 2V5.5H0.5V6.5L3 7.125V7.5L3.9 7.35L4.5 7.5V7.25L6 7L8.28583 7.38097C8.55849 7.75611 9.00076 8 9.5 8C10.3284 8 11 7.32843 11 6.5C11 6.32468 10.9699 6.15639 10.9146 6H11V2L9 1.33333V1ZM9.64645 12.7678L8.23223 11.3535L6.81802 12.0606L5.87867 13H4.5L4 14.5V16H7V14.5L6.93197 14.2959L7.87868 15.2426L8.93934 14.182L9.64645 12.7678ZM10.5 13L10 14.5V16H13V14.5L12.5 13H10.5ZM0.5 13L0 14.5V16H3V14.5L2.5 13H0.5ZM9.5 10C9.5 10.5523 9.94772 11 10.5 11C11.0523 11 11.5 10.5523 11.5 10C11.5 9.44771 11.0523 9 10.5 9C9.94772 9 9.5 9.44771 9.5 10ZM1.5 10C1.5 10.5523 1.94771 11 2.5 11C3.05229 11 3.5 10.5523 3.5 10C3.5 9.44771 3.05229 9 2.5 9C1.94771 9 1.5 9.44771 1.5 10ZM3.5 10C3.5 10.5523 3.94771 11 4.5 11C5.05229 11 5.5 10.5523 5.5 10C5.5 9.44771 5.05229 9 4.5 9C3.94771 9 3.5 9.44771 3.5 10ZM14 2L16 3.5V6H11.5V2H14Z" fill="#C4C4C4"/>
<path fill-rule="evenodd" clip-rule="evenodd" d="M4.82959 7.19507L6 7L8.28583 7.38097C8.55605 7.75275 8.99286 7.99562 9.4866 7.99994L9.48459 7.99993L9.80488 9.2811C9.61689 9.46292 9.5 9.71781 9.5 10C9.5 10.1285 9.52423 10.2513 9.56837 10.3642L8.53481 11.6561L8.23223 11.3535L6.81802 12.0606L5.87867 13H5.87715L5.21868 10.6953C5.39283 10.5154 5.5 10.2702 5.5 10C5.5 9.53144 5.17774 9.13815 4.74277 9.02967L4.36931 7.72256C4.56121 7.58587 4.71955 7.40512 4.82959 7.19507ZM2.66134 7.74382C2.36563 7.54405 2.14499 7.24161 2.05057 6.88764L0.5 6.5V5.5H0V2L3 1.25V1L4 0H8L9 1V1.33333L11 2V3H11.5V2H14L16 3.5V6H11.5V5H11V6H10.9146C10.9699 6.15639 11 6.32468 11 6.5C11 6.97537 10.7789 7.3991 10.4339 7.67392L10.775 9.03827C11.1935 9.15772 11.5 9.54307 11.5 10C11.5 10.2702 11.3928 10.5154 11.2187 10.6953L11.8771 13H12.5L13 14.5V16H10V14.5L10.5 13H10.8371L10.2853 11.0687L9.24626 12.3676L9.64645 12.7678L8.93934 14.182L7.87868 15.2426L6.93197 14.2959L7 14.5V16H4V14.5L4.5 13H4.83713L4.25723 10.9703C3.82226 10.8618 3.5 10.4686 3.5 10C3.5 9.72979 3.60717 9.48462 3.78132 9.30466L3.5 8.32003L3.21868 9.30466C3.39283 9.48462 3.5 9.72979 3.5 10C3.5 10.4686 3.17774 10.8618 2.74277 10.9703L2.16287 13H2.5L3 14.5V16H0V14.5L0.5 13H1.12285L1.78132 10.6953C1.60717 10.5154 1.5 10.2702 1.5 10C1.5 9.53144 1.82226 9.13815 2.25723 9.02967L2.63069 7.72257C2.64081 7.72978 2.65103 7.73686 2.66134 7.74382ZM2.12796 5.89285L2.13465 5.87798C2.13239 5.88292 2.13016 5.88788 2.12796 5.89285ZM2.13465 5.87798C2.19789 5.73938 2.28162 5.6121 2.38195 5.49999L2.38195 5.5H1.5V5.71922L2.13469 5.87789L2.13465 5.87798ZM1 2.78078V3H1.5H3V2.28078L1 2.78078ZM1.42995 14H1.77924L2 14.6623V15H1V14.6623L1.22076 14H1.42995ZM5.22076 14H5.57005H5.77924L6 14.6623V15H5V14.6623L5.22076 14ZM8.38723 13.0501L8.11749 13.5896L7.87868 13.8284L7.17157 13.1213L7.41038 12.8825L7.88259 12.6464L8.38723 13.0501ZM11.2208 14H11.5701H11.7792L12 14.6623V15H11V14.6623L11.2208 14ZM5.5 5.5V6.06954L4.96115 6.15935C4.90324 5.90996 4.78313 5.68444 4.61805 5.5H5.5ZM8 6V6.31954L6.5 6.06954V5.5H8V6ZM7.25 3H8V1.41421L7.58579 1H7.25V3ZM6.25 3H6.75V1H6.25V3ZM5.75 3V1H5.25V3H5.75ZM4.5 3H4.75V1H4.41421L4 1.41421V3H4.5ZM7.5 4.5H4.5V3.5H7.5V4.5ZM2 4.5H3V3.5H2V4.5ZM9 4.5V5H9.5H10V2.72076L9 2.38743V4.5ZM9.5 7C9.22386 7 9 6.77614 9 6.5C9 6.22386 9.22386 6 9.5 6C9.77614 6 10 6.22386 10 6.5C10 6.77614 9.77614 7 9.5 7ZM13.5 3.5C13.5 3.77614 13.7239 4 14 4C14.2761 4 14.5 3.77614 14.5 3.5C14.5 3.22386 14.2761 3 14 3C13.7239 3 13.5 3.22386 13.5 3.5ZM13.1338 4C13.2216 4.15181 13.3482 4.2784 13.5 4.36622V5H12.5V4H13.1338ZM12.5 3.5H13C13 3.31786 13.0487 3.14709 13.1338 3H12.5V3.5ZM14 5H15V4L14.904 3.92802C14.7436 4.26617 14.3991 4.5 14 4.5V5ZM4 6.5C4 6.77614 3.77614 7 3.5 7C3.22386 7 3 6.77614 3 6.5C3 6.22386 3.22386 6 3.5 6C3.77614 6 4 6.22386 4 6.5Z" fill="#565656"/>
</svg>
