<svg width="16" height="16" viewBox="0 0 16 16" fill="none" xmlns="http://www.w3.org/2000/svg">
<g clip-path="url(#clip0_272_3649)">
<path d="M5.17587 8.48528L7.29719 10.6066L3.76166 14.1421L1.64034 12.0208L5.17587 8.48528Z" fill="#C4C4C4"/>
<path d="M2.34745 11.3137L4.46877 13.435L3.38713 14.9493C3.02796 15.4522 2.30324 15.5121 1.86629 15.0752L0.707284 13.9162C0.270335 13.4792 0.330315 12.7545 0.833153 12.3953L2.34745 11.3137Z" fill="#C4C4C4"/>
<path fill-rule="evenodd" clip-rule="evenodd" d="M2.23935 12.6198L1.41439 13.2091L2.57339 14.3681L3.16265 13.5431L2.23935 12.6198ZM4.46877 13.435L2.34745 11.3137L0.833153 12.3953C0.330315 12.7545 0.270335 13.4792 0.707284 13.9162L1.86629 15.0752C2.30324 15.5121 3.02796 15.4522 3.38713 14.9493L4.46877 13.435Z" fill="#565656"/>
<path d="M12.6005 1.06066C13.1863 0.474874 14.136 0.474874 14.7218 1.06066L-nan -nanL-nan -nanL14.7218 1.06066C15.3076 1.64645 15.3076 2.59619 14.7218 3.18198L6.59008 11.3137L4.46876 9.19239L12.6005 1.06066Z" fill="#3049CE"/>
<path fill-rule="evenodd" clip-rule="evenodd" d="M6.59008 9.89949L14.0147 2.47487C14.21 2.27961 14.21 1.96303 14.0147 1.76777C13.8194 1.5725 13.5029 1.5725 13.3076 1.76777L5.88297 9.19239L6.59008 9.89949ZM14.7218 1.06066C14.136 0.474874 13.1863 0.474874 12.6005 1.06066L4.46876 9.19239L6.59008 11.3137L14.7218 3.18198C15.3076 2.59619 15.3076 1.64645 14.7218 1.06066Z" fill="#8DA0FF"/>
<path fill-rule="evenodd" clip-rule="evenodd" d="M5.88298 10.6066L5.17587 9.89949L3.05455 12.0208L3.76166 12.7279L5.88298 10.6066ZM5.17587 8.48528L1.64034 12.0208L3.76166 14.1421L7.29719 10.6066L5.17587 8.48528Z" fill="#565656"/>
</g>
<defs>
<clipPath id="clip0_272_3649">
<rect width="15.7825" height="15.7825" fill="white"/>
</clipPath>
</defs>
</svg>
