<svg width="16" height="16" viewBox="0 0 16 16" fill="none" xmlns="http://www.w3.org/2000/svg">
<path d="M1 7H15V9H1V7Z" fill="#565656"/>
<path d="M2 7L7.1 5H8.9L14 7V9L8.9 11H7.1L2 9V7Z" fill="#C4C4C4"/>
<path fill-rule="evenodd" clip-rule="evenodd" d="M13 7.68199L8.71093 6H7.28907L3 7.68199V8.31801L7.28907 10H8.71093L13 8.31801V7.68199ZM14 9V7L8.9 5H7.1L2 7V9L7.1 11H8.9L14 9Z" fill="#565656"/>
<path d="M12 8C12 10.2091 10.2091 12 8 12C5.79086 12 4 10.2091 4 8C4 5.79086 5.79086 4 8 4C10.2091 4 12 5.79086 12 8Z" fill="#C4C4C4"/>
<path fill-rule="evenodd" clip-rule="evenodd" d="M8 11C9.65685 11 11 9.65685 11 8C11 6.34315 9.65685 5 8 5C6.34315 5 5 6.34315 5 8C5 9.65685 6.34315 11 8 11ZM8 12C10.2091 12 12 10.2091 12 8C12 5.79086 10.2091 4 8 4C5.79086 4 4 5.79086 4 8C4 10.2091 5.79086 12 8 12Z" fill="#565656"/>
<path d="M4.21356 8.25L4.71356 7.75L7.7491 7.75V4.71447L8.2491 4.21447L8.2491 7.75L11.7233 7.75L11.7233 8.25H8.2491L8.2491 11.7226L7.7491 11.7226L7.7491 8.25L4.21356 8.25Z" fill="#565656"/>
<path fill-rule="evenodd" clip-rule="evenodd" d="M0 16L0 0L1 0L1 16H0Z" fill="#565656"/>
<path fill-rule="evenodd" clip-rule="evenodd" d="M15 16V0L16 0V16H15Z" fill="#565656"/>
<path d="M10 8C10 9.10457 9.10457 10 8 10C6.89543 10 6 9.10457 6 8C6 6.89543 6.89543 6 8 6C9.10457 6 10 6.89543 10 8Z" fill="white"/>
<path fill-rule="evenodd" clip-rule="evenodd" d="M8 9C8.55228 9 9 8.55228 9 8C9 7.44772 8.55228 7 8 7C7.44772 7 7 7.44772 7 8C7 8.55228 7.44772 9 8 9ZM8 10C9.10457 10 10 9.10457 10 8C10 6.89543 9.10457 6 8 6C6.89543 6 6 6.89543 6 8C6 9.10457 6.89543 10 8 10Z" fill="#565656"/>
</svg>
