<svg width="16" height="16" viewBox="0 0 16 16" fill="none" xmlns="http://www.w3.org/2000/svg">
<path d="M16 8C16 12.4183 12.4183 16 8 16C3.58172 16 0 12.4183 0 8C0 3.58172 3.58172 0 8 0C12.4183 0 16 3.58172 16 8Z" fill="#C4C4C4"/>
<path d="M13.2978 13.9945C13.199 13.9982 13.0997 14 13 14C8.58172 14 5 10.4183 5 5.99999C5 3.61356 6.04492 1.47118 7.70219 0.00543213C3.42189 0.162072 0 3.68142 0 7.99999C0 12.4183 3.58172 16 8 16C10.0318 16 11.8868 15.2425 13.2978 13.9945Z" fill="#565656"/>
<path fill-rule="evenodd" clip-rule="evenodd" d="M14.9291 9C14.4439 12.3923 11.5265 15 8 15C4.47353 15 1.55612 12.3923 1.07089 9H14.9291ZM15 8C15 4.13401 11.866 1 8 1C4.13401 1 1 4.13401 1 8H10.5H15ZM13 5.5C13 6.88071 11.8807 8 10.5 8C9.11929 8 8 6.88071 8 5.5C8 4.11929 9.11929 3 10.5 3C11.8807 3 13 4.11929 13 5.5ZM16 8C16 12.4183 12.4183 16 8 16C3.58172 16 0 12.4183 0 8C0 3.58172 3.58172 0 8 0C12.4183 0 16 3.58172 16 8ZM10.5 7C11.3284 7 12 6.32843 12 5.5C12 4.67157 11.3284 4 10.5 4C9.67157 4 9 4.67157 9 5.5C9 6.32843 9.67157 7 10.5 7ZM10.5 6C10.7761 6 11 5.77614 11 5.5C11 5.22386 10.7761 5 10.5 5C10.2239 5 10 5.22386 10 5.5C10 5.77614 10.2239 6 10.5 6Z" fill="#565656"/>
<path d="M11 4H12V7H11C11 7 11.5 6.5 11.5 5.5C11.5 4.5 11 4 11 4Z" fill="#565656"/>
<mask id="mask0_272_3673" style="mask-type:alpha" maskUnits="userSpaceOnUse" x="0" y="0" width="14" height="16">
<path fill-rule="evenodd" clip-rule="evenodd" d="M13.2978 13.9945C13.199 13.9982 13.0997 14 13 14C8.58172 14 5 10.4183 5 5.99999C5 3.61356 6.04492 1.47118 7.70219 0.00543213C3.42189 0.162072 0 3.68142 0 7.99999C0 12.4183 3.58172 16 8 16C10.0318 16 11.8868 15.2425 13.2978 13.9945Z" fill="#565656"/>
</mask>
<g mask="url(#mask0_272_3673)">
<path fill-rule="evenodd" clip-rule="evenodd" d="M13 9H-1V8H13V9Z" fill="#C4C4C4"/>
<path fill-rule="evenodd" clip-rule="evenodd" d="M0.252035 6H-3V11H0.581517C0.206507 10.0736 0 9.0609 0 8C0 7.3094 0.0875058 6.63924 0.252035 6Z" fill="#C4C4C4"/>
</g>
</svg>
