<svg width="16" height="16" viewBox="0 0 16 16" fill="none" xmlns="http://www.w3.org/2000/svg">
<g clip-path="url(#clip0_272_3655)">
<path fill-rule="evenodd" clip-rule="evenodd" d="M5.96908 0C3.75994 0 1.96908 1.79086 1.96908 4V4.76845C1.96908 5.58101 1.80403 6.38511 1.48395 7.13197L0.163864 10.2122C-0.279122 11.2458 0.218673 12.3704 1.14515 12.8095C1.4815 13.7645 2.2738 14.5207 3.29643 14.7863L5.54937 15.3715C6.77399 15.6896 7.96908 14.7653 7.96908 13.5V13.4142C7.96908 14.7229 9.2052 15.6789 10.4719 15.3499L12.6417 14.7863C13.6643 14.5207 14.4567 13.7645 14.793 12.8095C15.7195 12.3704 16.2173 11.2458 15.7743 10.2122L14.4542 7.13197C14.1341 6.38511 13.9691 5.58101 13.9691 4.76845V4C13.9691 1.79086 12.1782 0 9.96908 0H5.96908Z" fill="white"/>
<path d="M3.94017 6.70663L3.46909 6H6.96909L5.28672 7.00942C4.82899 7.28406 4.23627 7.15077 3.94017 6.70663Z" fill="#11583A"/>
<path d="M11.998 6.70663L12.4691 6H8.96909L10.6515 7.00942C11.1092 7.28406 11.7019 7.15077 11.998 6.70663Z" fill="#11583A"/>
<path fill-rule="evenodd" clip-rule="evenodd" d="M3.46909 5.5C3.28469 5.5 3.11526 5.60149 3.02825 5.76407C2.94124 5.92665 2.95078 6.12392 3.05306 6.27735L3.52415 6.98398C3.96829 7.65019 4.85738 7.85012 5.54397 7.43817L7.22633 6.42875C7.41905 6.31312 7.51093 6.08312 7.45094 5.86653C7.39095 5.64995 7.19383 5.5 6.96909 5.5H3.46909ZM12.4691 5.5C12.6535 5.5 12.8229 5.60149 12.9099 5.76407C12.9969 5.92665 12.9874 6.12392 12.8851 6.27735L12.414 6.98398C11.9699 7.65019 11.0808 7.85012 10.3942 7.43817L8.71184 6.42875C8.51912 6.31312 8.42724 6.08312 8.48723 5.86653C8.54722 5.64995 8.74434 5.5 8.96909 5.5H12.4691Z" fill="#11583A"/>
<path d="M5.96909 13C5.96909 13.5523 5.52137 14 4.96909 14C4.4168 14 3.96909 13.5523 3.96909 13C3.96909 12.4477 4.4168 12 4.96909 12C5.52137 12 5.96909 12.4477 5.96909 13Z" fill="black"/>
<path d="M11.9691 13C11.9691 13.5523 11.5214 14 10.9691 14C10.4168 14 9.96909 13.5523 9.96909 13C9.96909 12.4477 10.4168 12 10.9691 12C11.5214 12 11.9691 12.4477 11.9691 13Z" fill="black"/>
<path fill-rule="evenodd" clip-rule="evenodd" d="M0.163864 10.2122C-0.261899 11.2056 0.181388 12.2831 1.03907 12.7552C1.04816 12.7705 1.05816 12.7854 1.06908 12.8C1.10175 12.8436 1.14016 12.8803 1.18247 12.9099C1.53772 13.8173 2.30991 14.5301 3.29643 14.7863L5.54937 15.3715C6.23004 15.5483 6.90159 15.3413 7.36387 14.9052C7.73329 14.5567 7.96908 14.062 7.96908 13.5V13.4142C7.96908 13.4429 7.96967 13.4716 7.97086 13.5C7.99409 14.0583 8.24296 14.547 8.62033 14.891C9.0975 15.326 9.78013 15.5296 10.4719 15.3499L12.6417 14.7863C13.6282 14.5301 14.4004 13.8173 14.7557 12.9099C14.798 12.8803 14.8364 12.8436 14.8691 12.8C14.88 12.7854 14.89 12.7705 14.8991 12.7552C15.7568 12.2831 16.2 11.2056 15.7743 10.2122L14.4542 7.13197C14.1348 6.38657 13.9697 5.58417 13.9691 4.77324V4.5L13.9691 4.4986V4C13.9691 1.79086 12.1782 0 9.96908 0H5.96908C3.75994 0 1.96908 1.79086 1.96908 4V4.76845C1.96908 5.58101 1.80403 6.38511 1.48395 7.13197L0.163864 10.2122ZM12.9691 4.77362L12.9691 4.76845V4C12.9691 2.34315 11.6259 1 9.96908 1H5.96908C4.31222 1 2.96908 2.34315 2.96908 4V4.49869L2.96908 4.5V9.17157C2.96908 9.5694 3.12711 9.95093 3.40842 10.2322L3.54515 10.369L7.16795 7.95377C7.6718 7.61787 8.3282 7.61787 8.83205 7.95377L12.4177 10.3442L12.5297 10.2322C12.811 9.95093 12.9691 9.5694 12.9691 9.17157V4.77362ZM2.14402 12.6188L3.66998 11.4743L7.21078 10.682C7.71071 10.5702 8.2291 10.5694 8.72936 10.6798L12.2427 11.4552L13.7941 12.6188C13.541 13.1999 13.0322 13.6517 12.3903 13.8184L10.2205 14.382C9.58714 14.5465 8.96908 14.0685 8.96908 13.4142C8.96908 12.8619 8.52136 12.4142 7.96908 12.4142C7.41679 12.4142 6.96908 12.8619 6.96908 13.4142V13.5C6.96908 14.1109 6.39205 14.5572 5.80077 14.4036L3.54783 13.8184C2.90594 13.6517 2.39716 13.1999 2.14402 12.6188ZM14.4496 11.8604C14.8616 11.6134 15.0607 11.0857 14.8551 10.6061L13.9691 8.5386V9.17157C13.9691 9.83461 13.7057 10.4705 13.2368 10.9393L13.2303 10.9459L14.4496 11.8604ZM1.08301 10.6061L1.96908 8.53859V9.17157C1.96908 9.83461 2.23247 10.4705 2.70131 10.9393L2.70787 10.9459L1.48853 11.8604C1.07656 11.6134 0.877444 11.0857 1.08301 10.6061ZM8.27735 8.78582C8.26837 8.77983 8.25925 8.77417 8.25 8.76882V9.60598C8.41736 9.61623 8.58429 9.63583 8.75 9.6648V9.10092L8.27735 8.78582ZM9.25 9.43425V9.77067L10.0044 9.93716L9.25 9.43425ZM7.72265 8.78582C7.73163 8.77983 7.74075 8.77417 7.75 8.76882V9.6032C7.58272 9.61158 7.41579 9.6293 7.25 9.65637V9.10092L7.72265 8.78582ZM6.75 9.76041V9.43425L6.0136 9.92519L6.75 9.76041Z" fill="#565656"/>
<path fill-rule="evenodd" clip-rule="evenodd" d="M8.25 8.76883C8.25925 8.77417 8.26837 8.77984 8.27735 8.78582L8.75 9.10092V9.66481C8.58429 9.63584 8.41736 9.61623 8.25 9.60598V8.76883ZM9.25 9.77067V9.43426L10.0044 9.93716L9.25 9.77067ZM7.75 8.76883C7.74075 8.77417 7.73162 8.77984 7.72265 8.78582L7.25 9.10092V9.65637C7.41578 9.6293 7.58271 9.61158 7.75 9.60321V8.76883ZM6.75 9.43426V9.76041L6.0136 9.92519L6.75 9.43426Z" fill="#C4C4C4"/>
<path fill-rule="evenodd" clip-rule="evenodd" d="M7.96909 12C7.4168 12 6.96909 12.4477 6.96909 13V15C6.96909 15.5523 7.4168 16 7.96909 16C8.52137 16 8.96909 15.5523 8.96909 15V13C8.96909 12.4477 8.52137 12 7.96909 12Z" fill="black"/>
<path fill-rule="evenodd" clip-rule="evenodd" d="M14 5H2V4H14V5Z" fill="black"/>
</g>
<defs>
<clipPath id="clip0_272_3655">
<rect width="15.9382" height="16" fill="white"/>
</clipPath>
</defs>
</svg>
