<svg width="16" height="16" viewBox="0 0 16 16" fill="none" xmlns="http://www.w3.org/2000/svg">
<g clip-path="url(#clip0_272_3663)">
<path d="M1 8C1 4.13401 4.13401 1 8 1V1C11.866 1 15 4.13401 15 8V14L11 16H5L1 14V8Z" fill="#447A56"/>
<path d="M0.75 6.75L0.75 0.75M3.25 0.25H2.75M2.75 0.25H0.75L0.75 0.75M2.75 0.25L2.25 0.75H0.75" stroke="#565656" stroke-width="0.5"/>
<path d="M15.5 6.75L14 6L15 10.25V14L15.5 13.75V6.75Z" fill="#746530"/>
<path d="M0 6L2 5.5V10.5L0 10V6Z" fill="#746530"/>
<path fill-rule="evenodd" clip-rule="evenodd" d="M14 13.382V8C14 4.68629 11.3137 2 8 2C4.68629 2 2 4.68629 2 8V13.382L5.23607 15H10.7639L14 13.382ZM15 14V8C15 4.13401 11.866 1 8 1C4.13401 1 1 4.13401 1 8V14L5 16H11L15 14Z" fill="#24452F"/>
<path d="M5.24615 11.8205L6.5 16H7.5V7.5L1 8V14L1.5 14.25L3.16281 11.5479C3.37236 11.2074 3.74355 11 4.14337 11C4.65181 11 5.10005 11.3335 5.24615 11.8205Z" fill="black"/>
<path d="M10.7538 11.8205L9.5 16H8.5V7.5L15 8V14L14.5 14.25L12.8372 11.5479C12.6276 11.2074 12.2565 11 11.8566 11C11.3482 11 10.8999 11.3335 10.7538 11.8205Z" fill="black"/>
<path d="M0.5 9.25L1 9V14L0.5 13.75V9.25Z" fill="#746530"/>
<path fill-rule="evenodd" clip-rule="evenodd" d="M4.35068 6.56146L1.5 7.00003V7.99999H3.03031C4.3385 7.99999 5.64175 8.16043 6.91088 8.47771L7 8.49999V16H9V8.49999L9.08912 8.47771C10.3582 8.16043 11.6615 7.99999 12.9697 7.99999H14.5V6.99999L11.6493 6.56144C9.23067 6.18935 6.76934 6.18936 4.35068 6.56146Z" fill="black"/>
<path fill-rule="evenodd" clip-rule="evenodd" d="M3.59989 5.94288C6.50037 5.32135 9.49963 5.32135 12.4001 5.94288L15 6.5V8.5L13.2971 8.5C13.0995 8.5 12.9024 8.51951 12.7087 8.55826L11.8875 8.72249C11.0561 8.88879 10.4198 9.56137 10.2999 10.4008L9.5 16H9V8.49999L9.08912 8.47771C10.3582 8.16043 11.6615 7.99999 12.9697 7.99999H14.5V6.99999L11.6493 6.56144C9.23067 6.18935 6.76934 6.18936 4.35068 6.56146L1.5 7.00002V7.99999H3.03031C4.3385 7.99999 5.64175 8.16043 6.91088 8.47771L7 8.49999V16H6.5L5.70012 10.4008C5.58019 9.56137 4.94395 8.88879 4.11245 8.72249L3.29129 8.55826C3.09757 8.51951 2.9005 8.5 2.70294 8.5L1 8.5V6.5L3.59989 5.94288Z" fill="#AB3535"/>
<mask id="path-11-inside-1_272_3663" fill="white">
<path fill-rule="evenodd" clip-rule="evenodd" d="M12 8.03355C11.3288 8.0743 10.6608 8.15733 10 8.28215V6.37C10.5513 6.4161 11.1014 6.48129 11.6493 6.56558L12 6.61953V8.03355Z"/>
</mask>
<path fill-rule="evenodd" clip-rule="evenodd" d="M12 8.03355C11.3288 8.0743 10.6608 8.15733 10 8.28215V6.37C10.5513 6.4161 11.1014 6.48129 11.6493 6.56558L12 6.61953V8.03355Z" fill="white"/>
<path d="M12 8.03355L12.0152 8.28309L12.25 8.26883V8.03355H12ZM10 8.28215H9.75V8.58379L10.0464 8.5278L10 8.28215ZM10 6.37L10.0208 6.12086L9.75 6.09822V6.37H10ZM11.6493 6.56558L11.6113 6.81268L11.6113 6.81268L11.6493 6.56558ZM12 6.61953H12.25V6.40505L12.038 6.37244L12 6.61953ZM11.9848 7.78401C11.3031 7.8254 10.6247 7.90973 9.9536 8.03649L10.0464 8.5278C10.6969 8.40494 11.3544 8.32321 12.0152 8.28309L11.9848 7.78401ZM10.25 8.28215V6.37H9.75V8.28215H10.25ZM9.97917 6.61913C10.5247 6.66475 11.0691 6.72926 11.6113 6.81268L11.6873 6.31849C11.1337 6.23332 10.5779 6.16745 10.0208 6.12086L9.97917 6.61913ZM11.6113 6.81268L11.962 6.86663L12.038 6.37244L11.6873 6.31849L11.6113 6.81268ZM11.75 6.61953V8.03355H12.25V6.61953H11.75Z" fill="black" mask="url(#path-11-inside-1_272_3663)"/>
</g>
<defs>
<clipPath id="clip0_272_3663">
<rect width="15.5" height="15.75" fill="white" transform="translate(0 0.25)"/>
</clipPath>
</defs>
</svg>
