<svg width="16" height="13" viewBox="0 0 16 13" fill="none" xmlns="http://www.w3.org/2000/svg">
<g clip-path="url(#clip0_272_3676)">
<path d="M0 5.35355L6.8 3.35355H9.2L16 5.35355V7.35355L9.2 9.35355H6.8L0 7.35355V5.35355Z" fill="#C4C4C4"/>
<path fill-rule="evenodd" clip-rule="evenodd" d="M15 6.10179L9.05599 4.35355H6.94401L1 6.10179V6.60532L6.94401 8.35355H9.05599L15 6.60532V6.10179ZM16 7.35355V5.35355L9.2 3.35355H6.8L0 5.35355V7.35355L6.8 9.35355H9.2L16 7.35355Z" fill="#565656"/>
<path fill-rule="evenodd" clip-rule="evenodd" d="M2.5 7.35355V5.35355H3V7.35355H2.5Z" fill="#565656"/>
<path fill-rule="evenodd" clip-rule="evenodd" d="M13 7.35355V5.35355H13.5V7.35355H13Z" fill="#565656"/>
<path d="M12 6.35355C12 8.56269 10.2091 10.3536 8 10.3536C5.79086 10.3536 4 8.56269 4 6.35355C4 4.14441 5.79086 2.35355 8 2.35355C10.2091 2.35355 12 4.14441 12 6.35355Z" fill="#C4C4C4"/>
<path fill-rule="evenodd" clip-rule="evenodd" d="M8 9.35355C9.65685 9.35355 11 8.01041 11 6.35355C11 4.6967 9.65685 3.35355 8 3.35355C6.34315 3.35355 5 4.6967 5 6.35355C5 8.01041 6.34315 9.35355 8 9.35355ZM8 10.3536C10.2091 10.3536 12 8.56269 12 6.35355C12 4.14441 10.2091 2.35355 8 2.35355C5.79086 2.35355 4 4.14441 4 6.35355C4 8.56269 5.79086 10.3536 8 10.3536Z" fill="#565656"/>
<path d="M5.14645 3.85355H5.85355L8 6L10.1464 3.85355H10.8536L8.35355 6.35355L11 9L10.6464 9.35355L8 6.70711L5.35355 9.35355L5 9L7.64645 6.35355L5.14645 3.85355Z" fill="#565656"/>
<path fill-rule="evenodd" clip-rule="evenodd" d="M3.14644 0L3.85355 0.707107L0.999993 3.56066L0.999993 9.14645L3.85355 12L3.14644 12.7071L-7.15256e-06 9.56066L-7.15256e-06 3.14645L3.14644 0Z" fill="#565656"/>
<path fill-rule="evenodd" clip-rule="evenodd" d="M16 3.14645V9.56066L12.8536 12.7071L12.1464 12L15 9.14645V3.56066L12.1464 0.707107L12.8536 0L16 3.14645Z" fill="#565656"/>
<path d="M10 6.35355C10 7.45812 9.10457 8.35355 8 8.35355C6.89543 8.35355 6 7.45812 6 6.35355C6 5.24898 6.89543 4.35355 8 4.35355C9.10457 4.35355 10 5.24898 10 6.35355Z" fill="white"/>
<path fill-rule="evenodd" clip-rule="evenodd" d="M8 7.35355C8.55228 7.35355 9 6.90584 9 6.35355C9 5.80127 8.55228 5.35355 8 5.35355C7.44772 5.35355 7 5.80127 7 6.35355C7 6.90584 7.44772 7.35355 8 7.35355ZM8 8.35355C9.10457 8.35355 10 7.45812 10 6.35355C10 5.24898 9.10457 4.35355 8 4.35355C6.89543 4.35355 6 5.24898 6 6.35355C6 7.45812 6.89543 8.35355 8 8.35355Z" fill="#565656"/>
</g>
<defs>
<clipPath id="clip0_272_3676">
<rect width="16" height="12.7071" fill="white"/>
</clipPath>
</defs>
</svg>
