<svg width="16" height="16" viewBox="0 0 16 16" fill="none" xmlns="http://www.w3.org/2000/svg">
<path fill-rule="evenodd" clip-rule="evenodd" d="M8.00002 0C9.4364 0 10.7614 0.450873 11.8251 1.21105C14.2235 2.92498 14.6527 5.92289 15.0736 8.8629C15.1989 9.738 15.3234 10.608 15.4989 11.4374L15.9582 13.6078C16.2201 14.8453 15.2186 16 13.8832 16H2.11684C0.781477 16 -0.220058 14.8454 0.0418275 13.6078L0.501098 11.4374C0.676618 10.608 0.80116 9.73799 0.926438 8.8629C1.34732 5.92289 1.7765 2.92498 4.17491 1.21105C5.23866 0.450873 6.56363 0 8.00002 0ZM8.00002 1C9.1982 1 10.3006 1.37528 11.187 2.00871C12.4476 2.90954 13.0971 4.28313 13.5098 6.02122C13.7155 6.88733 13.8538 7.80454 13.9913 8.76133L14.0257 9.00154C14.1501 9.87049 14.279 10.7715 14.4614 11.6335L14.9207 13.8039C15.0516 14.4227 14.5509 15 13.8832 15H11.9998C13.3352 15 14.3367 13.8453 14.0748 12.6078L13.5986 10.3574C13.5141 9.95781 13.4592 9.5542 13.399 9.11052C13.3877 9.02787 13.3763 8.94382 13.3645 8.85815C13.2917 8.33079 13.2042 7.75367 13.0432 7.17728C12.4056 4.8936 10.5 3 8.00016 3C5.50032 3 3.59474 4.8936 2.95709 7.17728C2.79615 7.75367 2.70867 8.33079 2.63583 8.85815C2.62401 8.94374 2.61261 9.0277 2.60139 9.11028C2.54113 9.55396 2.48627 9.95781 2.40171 10.3574L1.92551 12.6078C1.66363 13.8454 2.66516 15 4.00052 15H2.11684C1.44916 15 0.948389 14.4227 1.07933 13.8039L1.5386 11.6335C1.72102 10.7715 1.84995 9.87049 1.97429 9.00154L2.00871 8.76133C2.14618 7.80454 2.28453 6.88733 2.49021 6.02122C2.90296 4.28312 3.55243 2.90954 4.81302 2.00871C5.69942 1.37528 6.80183 1 8.00002 1ZM12.8619 11.9749L12.5611 10.5535C12.5223 10.37 12.4891 10.1853 12.4593 10H11.6124L10.5543 11H9.49629L7.99998 12.4142L6.50367 11H5.44562L4.38756 10H3.54101C3.51119 10.1853 3.47805 10.37 3.43921 10.5535L3.13833 11.9754C3.30511 12.3416 3.51693 12.6851 3.76729 13H5.88387V13.7192L7.40868 13.3589L7.86086 14H8.13909L8.59128 13.3589L10.1161 13.7192V13H12.2327C12.4832 12.6849 12.6951 12.3412 12.8619 11.9749ZM3.68327 9H4.82582L5.88387 10H6.94193L7.99998 11L8.46791 10.5577C8.46561 10.5388 8.46442 10.5195 8.46442 10.5V7.5C8.46442 7.22386 8.70128 7 8.99345 7H11.6386C11.7356 7 11.8266 7.0247 11.9048 7.06782C11.2651 5.26577 9.75777 4 8.00016 4C6.25399 4 4.7548 5.24936 4.10813 7.03273C4.16673 7.01158 4.23033 7 4.2968 7H6.4129C6.70507 7 6.94193 7.22386 6.94193 7.5C6.94193 7.77614 6.70507 8 6.4129 8H4.2968C4.13033 8 3.98181 7.92732 3.88484 7.81371C3.79752 8.20499 3.73814 8.602 3.68327 9ZM12.0999 7.745C12.0092 7.8972 11.8366 8 11.6386 8H9.52248V10H10.1161L11.1741 9H12.3171C12.259 8.57868 12.1958 8.15847 12.0999 7.745Z" fill="#7C5400"/>
<path d="M7.99989 1C9.19808 1 10.3005 1.37528 11.1869 2.00871C12.4475 2.90954 13.0969 4.28313 13.5097 6.02122C13.7154 6.88733 13.8537 7.80454 13.9912 8.76133L14.0256 9.00154C14.15 9.87049 14.2789 10.7715 14.4613 11.6335L14.9206 13.8039C15.0515 14.4227 14.5508 15 13.8831 15C13.8831 15 10.6643 15 11.9997 15C13.335 15 14.3366 13.8453 14.0747 12.6078L13.5985 10.3574C13.5139 9.95781 13.4591 9.5542 13.3988 9.11052C13.3876 9.02787 13.3762 8.94382 13.3644 8.85815C13.2915 8.33079 13.2041 7.75367 13.0431 7.17728C12.4055 4.8936 10.4999 3 8.00004 3C5.50019 3 3.59462 4.8936 2.95697 7.17728C2.79603 7.75367 2.70855 8.33079 2.63571 8.85815C2.62389 8.94374 2.61249 9.0277 2.60127 9.11028C2.541 9.55396 2.48615 9.95781 2.40159 10.3574L1.92539 12.6078C1.66351 13.8454 2.66504 15 4.0004 15H2.11671C1.44903 15 0.948267 14.4227 1.07921 13.8039L1.53848 11.6335C1.72089 10.7715 1.84983 9.87049 1.97417 9.00154L2.00859 8.76133C2.14606 7.80454 2.28441 6.88733 2.49009 6.02122C2.90284 4.28312 3.55231 2.90954 4.8129 2.00871C5.6993 1.37528 6.80171 1 7.99989 1Z" fill="#B97E01"/>
<path d="M12.561 10.5535L12.8619 11.9749C12.6951 12.3412 12.4832 12.6849 12.2327 13H10.1161V13.7192L8.59124 13.3589L8.13919 14H7.86073L7.40868 13.3589L5.88386 13.7192V13H3.76724C3.51693 12.6851 3.30511 12.3416 3.13824 11.9754L3.43918 10.5535C3.47793 10.37 3.51125 10.1853 3.54095 10H4.38745L5.4455 11H6.50355L7.99996 12.4142L9.49637 11H10.5544L11.6125 10H12.4592C12.4892 10.1853 12.5222 10.37 12.561 10.5535Z" fill="white"/>
<path d="M8.00022 4C6.25402 4 4.75477 5.24939 4.10821 7.03271C4.15678 7.01514 4.20921 7.00415 4.26372 7.00098L4.29678 7H6.41288C6.70504 7 6.94191 7.22388 6.94191 7.5C6.94191 7.77612 6.70504 8 6.41288 8H4.29678L4.26553 7.99915L4.23944 7.99713C4.19682 7.9928 4.15574 7.98364 4.11648 7.97028C4.06818 7.95374 4.02323 7.93073 3.98267 7.9024C3.94599 7.87689 3.91319 7.84711 3.88477 7.81372C3.84783 7.97961 3.8158 8.14655 3.78687 8.31415C3.74787 8.54181 3.7148 8.77075 3.68329 9H4.82581L5.88386 10H6.94191L7.99996 11L8.46803 10.5577C8.46673 10.5462 8.4657 10.5345 8.46518 10.5228L8.46441 10.5V7.5C8.46441 7.22388 8.70128 7 8.99343 7H11.6386C11.7357 7 11.8266 7.02472 11.9049 7.06781C11.265 5.26575 9.75778 4 8.00022 4Z" fill="#FFEBC4"/>
<path d="M12.0999 7.745C12.0092 7.89722 11.8364 8 11.6386 8H9.52246V10H10.1161L11.1741 9H12.3172C12.259 8.57867 12.1957 8.15845 12.0999 7.745Z" fill="#FFEBC4"/>
</svg>
