<svg width="16" height="16" viewBox="0 0 16 16" fill="none" xmlns="http://www.w3.org/2000/svg">
<g clip-path="url(#clip0_272_3660)">
<path fill-rule="evenodd" clip-rule="evenodd" d="M6.50001 0.5C6.50001 0.223858 6.72387 0 7.00001 0H9.00001C9.27615 0 9.50001 0.223858 9.50001 0.5V0.524688C11.9594 0.768875 13.8946 2.79521 13.9958 5.29404C14.3768 5.86209 14.6233 6.51843 14.7051 7.21358L15.322 12.4573L15.8323 14.3712C15.917 14.6886 15.6777 15 15.3492 15H12.9147C12.7087 15.5826 12.1531 16 11.5 16C11.0558 16 10.6566 15.8069 10.382 15.5H10.25H9.75001H9.25001H8.75001H6.25001H5.75001H5.61806C5.3434 15.8069 4.94426 16 4.50001 16C3.8469 16 3.29128 15.5826 3.08536 15H0.650816C0.3223 15 0.0830526 14.6886 0.167699 14.3712L0.678051 12.4573L1.29496 7.21358C1.37675 6.51843 1.62326 5.86209 2.00418 5.29405C2.10542 2.79521 4.04058 0.768875 6.50001 0.524688V0.5ZM9.25001 11.9201L9.75001 12.7201V14H9.25001V11.9201ZM8.75001 11.5V14H8.25001V11.5H8.75001ZM7.75001 11.5V14H7.25001V11.5H7.75001ZM6.75001 11.9201V14H6.25001V12.7201L6.75001 11.9201ZM8.75001 10.25V10.5H7.25001V10.25C7.25001 9.83579 7.5858 9.5 8.00001 9.5C8.41422 9.5 8.75001 9.83579 8.75001 10.25ZM13.1396 10.7123L12.1657 13.1554C11.9651 13.0559 11.7391 13 11.5 13C11.3732 13 11.2501 13.0157 11.1325 13.0453L9.75001 10.8333V10.25C9.75001 10.1383 9.73954 10.029 9.71953 9.92309L13.1396 10.7123ZM6.25001 10.8333L4.8675 13.0453C4.74991 13.0157 4.6268 13 4.50001 13C4.26091 13 4.03488 13.0559 3.83429 13.1554L2.86046 10.7123L6.28049 9.92309C6.26048 10.029 6.25001 10.1383 6.25001 10.25L6.25001 10.8333ZM13.0305 8.55467L13.3448 9.7334L11.1503 9.22698C11.6562 9.16523 12.1545 9.0382 12.6307 8.84773C12.7916 8.78337 12.9271 8.68093 13.0305 8.55467ZM3.36933 8.84773C3.84552 9.0382 4.34382 9.16523 4.84973 9.22698L2.65524 9.7334L2.96957 8.55467C3.07288 8.68093 3.20844 8.78337 3.36933 8.84773ZM5.22163 6.50079L5.80955 8.26454C5.44975 8.28247 5.08842 8.26049 4.73315 8.19943L4.28218 6.84651C4.5208 6.62869 4.83684 6.5 5.17546 6.5C5.19091 6.5 5.2063 6.50026 5.22163 6.50079ZM7.50001 7.25V7H8.50001V7.25H7.50001ZM7.50001 7.82456V7.75H8.50001V7.82243L8.50001 7.82456L8.50001 8H7.50001V7.82456ZM10.2159 6.6478L10.7534 8.26016C11.0904 8.23816 11.4252 8.18145 11.7516 8.09073L11.2441 6.56809C11.1113 6.52374 10.97 6.5 10.8246 6.5C10.6051 6.5 10.3982 6.55336 10.2159 6.6478ZM9.50001 4.01944V1.53095C10.9799 1.71548 12.2087 2.7084 12.7306 4.05387C11.7421 3.42852 10.4902 3.4219 9.50001 4.01944ZM6.50001 4.01944C5.50986 3.4219 4.25795 3.42852 3.26942 4.05387C3.79134 2.7084 5.02015 1.71548 6.50001 1.53095V4.01944ZM7.50001 1V5C7.50001 5.18939 7.39301 5.36252 7.22362 5.44721C7.05423 5.53191 6.85152 5.51363 6.70001 5.4L6.15708 4.9928C5.45351 4.46513 4.49367 4.43849 3.76192 4.92632C2.95187 5.46635 2.41624 6.33069 2.29245 7.29518C2.60633 6.50308 3.23359 5.86805 4.03447 5.5477C4.98853 5.16608 6.06931 5.27861 6.92429 5.84859L7.1514 6H8.84862L9.07573 5.84859C9.93071 5.27861 11.0115 5.16608 11.9656 5.5477C12.7664 5.86805 13.3937 6.50308 13.7076 7.29518C13.5838 6.33069 13.0482 5.46635 12.2381 4.92632C11.5064 4.43849 10.5465 4.46513 9.84295 4.9928L9.30001 5.4C9.1485 5.51363 8.9458 5.53191 8.7764 5.44721C8.60701 5.36252 8.50001 5.18939 8.50001 5V1H7.50001ZM5.00001 14.5C5.00001 14.7761 4.77615 15 4.50001 15C4.22387 15 4.00001 14.7761 4.00001 14.5C4.00001 14.2239 4.22387 14 4.50001 14C4.77615 14 5.00001 14.2239 5.00001 14.5ZM12 14.5C12 14.7761 11.7762 15 11.5 15C11.2239 15 11 14.7761 11 14.5C11 14.2239 11.2239 14 11.5 14C11.7762 14 12 14.2239 12 14.5Z" fill="black"/>
</g>
<defs>
<clipPath id="clip0_272_3660">
<rect width="15.6989" height="16" fill="white" transform="translate(0.150543)"/>
</clipPath>
</defs>
</svg>
