<svg width="16" height="16" viewBox="0 0 16 16" fill="none" xmlns="http://www.w3.org/2000/svg">
<path d="M11 5.5C11 5.77614 10.7761 6 10.5 6C10.2239 6 10 5.77614 10 5.5C10 5.22386 10.2239 5 10.5 5C10.7761 5 11 5.22386 11 5.5Z" fill="black"/>
<path fill-rule="evenodd" clip-rule="evenodd" d="M13 14C13.0997 14 13.199 13.9982 13.2978 13.9945C11.8868 15.2425 10.0318 16 8 16C3.92038 16 0.553993 12.9463 0.0618938 8.99999H5.58152C6.76829 11.9318 9.64262 14 13 14ZM5.25204 7.99999C5.08751 7.36075 5 6.69059 5 5.99999C5 3.61356 6.04492 1.47118 7.70219 0.00543213C3.42189 0.162072 0 3.68142 0 7.99999L5.25204 7.99999Z" fill="black"/>
<path fill-rule="evenodd" clip-rule="evenodd" d="M15 8C15 11.866 11.866 15 8 15C4.47353 15 1.55612 12.3923 1.07089 9H0.0618938C0.553992 12.9463 3.92038 16 8 16C12.4183 16 16 12.4183 16 8C16 3.58172 12.4183 0 8 0C3.58172 0 0 3.58172 0 8H1C1 4.13401 4.13401 1 8 1C11.866 1 15 4.13401 15 8Z" fill="black"/>
<path fill-rule="evenodd" clip-rule="evenodd" d="M5.25204 8C5.34027 8.34276 5.45063 8.67663 5.58153 9H15V8H5.25204Z" fill="black"/>
<path fill-rule="evenodd" clip-rule="evenodd" d="M11.1012 6.87467C10.9171 6.95528 10.7138 7 10.5 7C9.67157 7 9 6.32843 9 5.5C9 4.67157 9.67157 4 10.5 4C10.7138 4 10.9171 4.04472 11.1012 4.12533C11.2473 4.33083 11.5 4.78905 11.5 5.5C11.5 6.21095 11.2473 6.66917 11.1012 6.87467ZM13 5.5C13 6.88071 11.8807 8 10.5 8C9.11929 8 8 6.88071 8 5.5C8 4.11929 9.11929 3 10.5 3C11.8807 3 13 4.11929 13 5.5Z" fill="black"/>
</svg>
