<svg width="16" height="16" viewBox="0 0 16 16" fill="none" xmlns="http://www.w3.org/2000/svg">
<g clip-path="url(#clip0_272_3662)">
<path d="M14.192 7.6165C14.261 7.73607 14.4139 7.77704 14.5335 7.70801C14.6531 7.63897 14.694 7.48607 14.625 7.3665C14.556 7.24693 14.4031 7.20596 14.2835 7.27499C14.1639 7.34403 14.123 7.49693 14.192 7.6165Z" fill="black"/>
<path d="M14.5335 6.70801C14.4139 6.77704 14.261 6.73607 14.192 6.6165C14.123 6.49693 14.1639 6.34403 14.2835 6.27499C14.4031 6.20596 14.556 6.24693 14.625 6.3665C14.694 6.48607 14.6531 6.63897 14.5335 6.70801Z" fill="black"/>
<path d="M13.692 7.1165C13.761 7.23607 13.9139 7.27704 14.0335 7.20801C14.1531 7.13897 14.194 6.98607 14.125 6.8665C14.056 6.74693 13.9031 6.70596 13.7835 6.77499C13.6639 6.84403 13.623 6.99693 13.692 7.1165Z" fill="black"/>
<path fill-rule="evenodd" clip-rule="evenodd" d="M11 0.5H9V1H8V1.5H6V1H5V1.5H4L2.5 1H0V5H2.5L4 4.5H5V5.5H2.5C1.67157 5.5 1 6.17157 1 7C1 7.5732 1.32152 8.07131 1.79404 8.32382L0.5743 13.2028C0.282583 14.3697 1.16513 15.5 2.36791 15.5C3.3003 15.5 4.08678 14.8057 4.20243 13.8805L4.51561 11.3751C4.65912 11.4547 4.82427 11.5 5 11.5H7V12.5H11V10.5H11.5V9H12.5C12.8009 9 13.0708 8.86709 13.2541 8.65676L16 9V5L13.2541 5.34324C13.0708 5.13291 12.8009 5 12.5 5H11.5C11.1299 5 10.8067 5.2011 10.6338 5.5H9V4.5H14V1.5H11V0.5ZM6 2.5H8V3.5H6V2.5ZM9 2.5V3.5H13V2.5H9ZM5 2.5H4V3.5H5V2.5ZM3 2.22076L2.33772 2H1V4H2.33772L3 3.77924V2.22076ZM8.08535 6.5H6V7.5H8.08535C8.03008 7.34361 8 7.17532 8 7C8 6.82468 8.03008 6.65639 8.08535 6.5ZM5.42528 8.5C5.51984 8.64683 5.65282 8.76739 5.8122 8.84708L6.22361 9.05279C6.4706 9.17629 6.57071 9.47662 6.44721 9.72361C6.32371 9.9706 6.02338 10.0707 5.77639 9.94721L5.36498 9.7415C5.23392 9.67597 5.11172 9.59674 5 9.50581V10C5 10.2761 5.22386 10.5 5.5 10.5H6.5C6.77614 10.5 7 10.2761 7 10V9C7 8.72386 6.77614 8.5 6.5 8.5H5.42528ZM5 7.5V6.5H3.91465C3.96992 6.65639 4 6.82468 4 7C4 7.17532 3.96992 7.34361 3.91465 7.5H5ZM12.5 6H11.5V6.25H11.75C11.8881 6.25 12 6.36193 12 6.5C12 6.63807 11.8881 6.75 11.75 6.75H11.5V7.25H11.75C11.8881 7.25 12 7.36193 12 7.5C12 7.63807 11.8881 7.75 11.75 7.75H11.5V8H12.5V6ZM3 7C3 7.27614 2.77614 7.5 2.5 7.5C2.22386 7.5 2 7.27614 2 7C2 6.72386 2.22386 6.5 2.5 6.5C2.77614 6.5 3 6.72386 3 7ZM9.5 7.5C9.77614 7.5 10 7.27614 10 7C10 6.72386 9.77614 6.5 9.5 6.5C9.22386 6.5 9 6.72386 9 7C9 7.27614 9.22386 7.5 9.5 7.5ZM9 8.5V9H10V8.5H9ZM8 8.5H8.5V11H8V8.5ZM10 10.5V11H9V10.5H10ZM10 9.5V10H9V9.5H10ZM1.65577 13L1.78077 12.5H3.36722L3.30472 13H1.65577ZM2.03077 11.5L1.90577 12H3.42972L3.49222 11.5H2.03077ZM2.15577 11L2.28077 10.5H3.61722L3.55472 11H2.15577ZM2.53077 9.5L2.40577 10H3.67972L3.74222 9.5H2.53077ZM2.65577 9H3.80472L3.86722 8.5H2.78077L2.65577 9ZM1.53262 13.5C1.43829 14.0158 1.83451 14.5 2.36791 14.5C2.79598 14.5 3.15706 14.1812 3.21016 13.7565L3.24222 13.5H1.53262ZM15 6.13278L13.5 6.32028V7.67972L15 7.86722V6.13278Z" fill="black"/>
</g>
<defs>
<clipPath id="clip0_272_3662">
<rect width="16" height="15" fill="white" transform="translate(0 0.5)"/>
</clipPath>
</defs>
</svg>
