<svg width="16" height="16" viewBox="0 0 16 16" fill="none" xmlns="http://www.w3.org/2000/svg">
<g clip-path="url(#clip0_272_3646)">
<path fill-rule="evenodd" clip-rule="evenodd" d="M14.0147 2.47488L6.59009 9.8995L5.88298 9.19239L13.3076 1.76777C13.5029 1.57251 13.8195 1.57251 14.0147 1.76777C14.21 1.96303 14.21 2.27961 14.0147 2.47488ZM5.17588 8.48528L12.6005 1.06066C13.1863 0.474876 14.136 0.474876 14.7218 1.06066C15.3076 1.64645 15.3076 2.5962 14.7218 3.18198L7.2972 10.6066L6.59009 11.3137L4.46878 13.435L3.38714 14.9493C3.02797 15.4522 2.30325 15.5121 1.8663 15.0752L0.707293 13.9162C0.270343 13.4792 0.330323 12.7545 0.833161 12.3953L2.34745 11.3137L4.46877 9.19239L5.17588 8.48528ZM5.17588 9.89949L3.05456 12.0208L3.76167 12.7279L5.88299 10.6066L5.17588 9.89949ZM2.23936 12.6198L3.16266 13.5431L2.5734 14.3681L1.4144 13.2091L2.23936 12.6198Z" fill="black"/>
</g>
<defs>
<clipPath id="clip0_272_3646">
<rect width="14.7468" height="14.7468" fill="white" transform="translate(0.414368 0.621323)"/>
</clipPath>
</defs>
</svg>
