<svg width="16" height="16" viewBox="0 0 16 16" fill="none" xmlns="http://www.w3.org/2000/svg">
<g clip-path="url(#clip0_272_3645)">
<path fill-rule="evenodd" clip-rule="evenodd" d="M8.00003 0C9.43642 0 10.7614 0.450873 11.8251 1.21105C14.2235 2.92498 14.6527 5.92289 15.0736 8.8629C15.1989 9.738 15.3234 10.608 15.4989 11.4374L15.9582 13.6078C16.2201 14.8453 15.2186 16 13.8832 16H2.11685C0.781493 16 -0.220043 14.8454 0.0418428 13.6078L0.501113 11.4374C0.676633 10.608 0.801176 9.73799 0.926453 8.8629C1.34734 5.92289 1.77651 2.92498 4.17492 1.21105C5.23868 0.450873 6.56364 0 8.00003 0ZM8.00003 1C9.19822 1 10.3006 1.37528 11.187 2.00871C12.4476 2.90954 13.0971 4.28313 13.5098 6.02122C13.7155 6.88733 13.8539 7.80454 13.9913 8.76133L14.0258 9.00154C14.1501 9.87049 14.279 10.7715 14.4614 11.6335L14.9207 13.8039C15.0517 14.4227 14.5509 15 13.8832 15H11.9998C13.3352 15 14.3367 13.8453 14.0748 12.6078L13.5986 10.3574C13.5141 9.95781 13.4592 9.5542 13.399 9.11052C13.3878 9.02787 13.3763 8.94382 13.3645 8.85815C13.2917 8.33079 13.2042 7.75367 13.0432 7.17728C12.4056 4.8936 10.5 3 8.00018 3C5.50033 3 3.59475 4.8936 2.95711 7.17728C2.79617 7.75367 2.70868 8.33079 2.63585 8.85815C2.62403 8.94374 2.61262 9.0277 2.60141 9.11028C2.54114 9.55396 2.48629 9.95781 2.40172 10.3574L1.92553 12.6078C1.66364 13.8454 2.66518 15 4.00054 15H2.11685C1.44917 15 0.948405 14.4227 1.07935 13.8039L1.53862 11.6335C1.72103 10.7715 1.84996 9.87049 1.97431 9.00154L2.00873 8.76133C2.1462 7.80454 2.28454 6.88733 2.49022 6.02122C2.90298 4.28312 3.55245 2.90954 4.81304 2.00871C5.69943 1.37528 6.80184 1 8.00003 1ZM12.8619 11.9749L12.5611 10.5535C12.5223 10.37 12.4892 10.1853 12.4593 10H11.6124L10.5544 11H9.4963L7.99999 12.4142L6.50368 11H5.44563L4.38758 10H3.54102C3.5112 10.1853 3.47807 10.37 3.43923 10.5535L3.13835 11.9754C3.30513 12.3416 3.51694 12.6851 3.7673 13H5.88389V13.7192L7.40869 13.3589L7.86088 14H8.13911L8.59129 13.3589L10.1161 13.7192V13H12.2327C12.4832 12.6849 12.6951 12.3412 12.8619 11.9749ZM3.68329 9H4.82584L5.88389 10H6.94194L7.99999 11L8.46793 10.5577C8.46562 10.5388 8.46444 10.5195 8.46444 10.5V7.5C8.46444 7.22386 8.70129 7 8.99346 7H11.6386C11.7357 7 11.8266 7.0247 11.9048 7.06782C11.2652 5.26577 9.75779 4 8.00018 4C6.254 4 4.75482 5.24936 4.10814 7.03273C4.16675 7.01158 4.23035 7 4.29681 7H6.41292C6.70509 7 6.94194 7.22386 6.94194 7.5C6.94194 7.77614 6.70509 8 6.41292 8H4.29681C4.13034 8 3.98183 7.92732 3.88485 7.81371C3.79753 8.20499 3.73816 8.602 3.68329 9ZM12.0999 7.745C12.0092 7.8972 11.8366 8 11.6386 8H9.52249V10H10.1161L11.1741 9H12.3171C12.259 8.57868 12.1959 8.15847 12.0999 7.745Z" fill="black"/>
</g>
<defs>
<clipPath id="clip0_272_3645">
<rect width="16" height="16" fill="white"/>
</clipPath>
</defs>
</svg>
