<svg width="16" height="16" viewBox="0 0 16 16" fill="none" xmlns="http://www.w3.org/2000/svg">
<g clip-path="url(#clip0_272_3654)">
<path fill-rule="evenodd" clip-rule="evenodd" d="M1.18247 12.9099C1.53772 13.8173 2.30991 14.5301 3.29643 14.7863L5.54937 15.3715C6.0619 15.5046 6.56925 15.4201 6.98599 15.1841C7.0724 15.6484 7.47968 16 7.96908 16C8.4736 16 8.89086 15.6264 8.95925 15.1407C9.39523 15.3965 9.93076 15.4905 10.4719 15.3499L12.6417 14.7863C13.6282 14.5301 14.4004 13.8173 14.7557 12.9099C14.798 12.8803 14.8364 12.8436 14.8691 12.8C14.88 12.7854 14.89 12.7705 14.8991 12.7552C15.7568 12.2831 16.2 11.2056 15.7743 10.2122L14.4542 7.13197C14.1341 6.38511 13.9691 5.58101 13.9691 4.76845V4C13.9691 1.79086 12.1782 0 9.96908 0H5.96908C3.75994 0 1.96908 1.79086 1.96908 4V4.76845C1.96908 5.58101 1.80403 6.38511 1.48395 7.13197L0.163864 10.2122C-0.261899 11.2056 0.181387 12.2831 1.03906 12.7552C1.04816 12.7705 1.05816 12.7854 1.06908 12.8C1.10175 12.8436 1.14016 12.8803 1.18247 12.9099ZM14.8551 10.6061C15.0607 11.0857 14.8616 11.6134 14.4496 11.8604L13.2303 10.9459L13.2368 10.9393C13.7057 10.4705 13.9691 9.83461 13.9691 9.17157V8.53859L14.8551 10.6061ZM2.96908 5H12.9691L12.9691 5.99824C12.9688 5.91793 12.9492 5.83747 12.9099 5.76407C12.8229 5.60149 12.6535 5.5 12.4691 5.5H8.96908C8.74434 5.5 8.54721 5.64995 8.48722 5.86653C8.42723 6.08312 8.51912 6.31312 8.71183 6.42875L10.3942 7.43817C11.0808 7.85012 11.9699 7.65019 12.414 6.98398L12.8851 6.27735C12.9406 6.19418 12.9687 6.09812 12.9691 6.00169V9.17157C12.9691 9.5694 12.811 9.95093 12.5297 10.2322L12.4177 10.3442L8.83205 7.95377C8.3282 7.61787 7.6718 7.61787 7.16795 7.95377L3.54515 10.369L3.40842 10.2322C3.12711 9.95093 2.96908 9.5694 2.96908 9.17157V6.00084C2.96924 6.09755 2.99744 6.19393 3.05305 6.27735L3.52414 6.98398C3.96828 7.65019 4.85737 7.85012 5.54396 7.43817L7.22633 6.42875C7.41904 6.31312 7.51093 6.08312 7.45093 5.86653C7.39094 5.64995 7.19382 5.5 6.96908 5.5H3.46908C3.28468 5.5 3.11525 5.60149 3.02824 5.76407C2.98882 5.83773 2.96922 5.91851 2.96908 5.9991V5ZM11.6107 11.3146C12.027 11.4071 12.4188 11.5873 12.7599 11.8431L13.7941 12.6188C13.541 13.1999 13.0322 13.6517 12.3903 13.8184L10.2205 14.382C9.58714 14.5465 8.96908 14.0685 8.96908 13.4142V13C8.96908 12.4477 8.52136 12 7.96908 12C7.41679 12 6.96908 12.4477 6.96908 13V13.5C6.96908 14.1109 6.39205 14.5572 5.80077 14.4036L3.54783 13.8184C2.90594 13.6517 2.39716 13.1999 2.14402 12.6188L3.15219 11.8627C3.49334 11.6068 3.88512 11.4266 4.3014 11.3341L7.24074 10.6809C7.74082 10.5698 8.25918 10.5698 8.75926 10.6809L11.6107 11.3146ZM1.96908 8.53859L1.08301 10.6061C0.877444 11.0857 1.07656 11.6134 1.48853 11.8604L2.70787 10.9459L2.70131 10.9393C2.23247 10.4705 1.96908 9.83461 1.96908 9.17157V8.53859ZM12.9691 4H2.96908C2.96908 2.34315 4.31222 1 5.96908 1H9.96908C11.6259 1 12.9691 2.34315 12.9691 4ZM5.96908 13C5.96908 13.5523 5.52136 14 4.96908 14C4.41679 14 3.96908 13.5523 3.96908 13C3.96908 12.4477 4.41679 12 4.96908 12C5.52136 12 5.96908 12.4477 5.96908 13ZM10.9691 14C11.5214 14 11.9691 13.5523 11.9691 13C11.9691 12.4477 11.5214 12 10.9691 12C10.4168 12 9.96908 12.4477 9.96908 13C9.96908 13.5523 10.4168 14 10.9691 14ZM7.70905 8.76699C7.71803 8.76101 7.72715 8.75535 7.7364 8.75V9.58438C7.56912 9.59276 7.40219 9.61048 7.2364 9.63754V9.08209L7.70905 8.76699ZM8.2364 9.58716V8.75C8.24566 8.75534 8.25478 8.76101 8.26375 8.76699L8.7364 9.08209V9.64598C8.57069 9.61701 8.40376 9.5974 8.2364 9.58716ZM9.2364 9.75184L9.99076 9.91833L9.2364 9.41543V9.75184ZM6.7364 9.41543L6 9.90636L6.7364 9.74158V9.41543Z" fill="black"/>
</g>
<defs>
<clipPath id="clip0_272_3654">
<rect width="15.9382" height="16" fill="white"/>
</clipPath>
</defs>
</svg>
