<svg width="16" height="16" viewBox="0 0 16 16" fill="none" xmlns="http://www.w3.org/2000/svg">
<path fill-rule="evenodd" clip-rule="evenodd" d="M0 0V16H1V9H2L4.53078 9.99246L4.53016 9.99139C5.22054 11.1917 6.51588 12 8 12C9.48368 12 10.7787 11.1922 11.4692 9.99246L14 9H15V16H16V0H15V7L14 7L11.4692 6.00754C10.7787 4.80778 9.48367 4 8 4C6.51632 4 5.22132 4.80778 4.53078 6.00754L2 7L1 7V0H0ZM7.74909 9.98441L7.74909 10.9897C6.29206 10.869 5.13048 9.70714 5.01027 8.25H6.01547C6.12825 9.15438 6.84484 9.87123 7.74909 9.98441ZM8.24909 9.98464V10.9898C9.70697 10.87 10.8695 9.70775 10.9897 8.25H9.98453C9.87168 9.15498 9.1542 9.8722 8.24909 9.98464ZM9.98453 7.75H10.9897C10.8695 6.29224 9.70696 5.13002 8.24909 5.01019V6.01536C9.1542 6.1278 9.87168 6.84502 9.98453 7.75ZM7.74909 6.01558V5.01034C6.29207 5.13099 5.13048 6.29285 5.01027 7.75H6.01547C6.12825 6.84562 6.84484 6.12877 7.74909 6.01558ZM13 8.31801L11.9323 8.73672C11.9768 8.49793 12 8.25168 12 8C12 7.74832 11.9768 7.50207 11.9323 7.26328L13 7.68199V8.31801ZM3 7.68199L4.0677 7.26328V8.73672L3 8.31801V7.68199ZM9 8C9 8.55228 8.55228 9 8 9C7.44772 9 7 8.55228 7 8C7 7.44772 7.44772 7 8 7C8.55228 7 9 7.44772 9 8Z" fill="black"/>
</svg>
