<svg width="16" height="13" viewBox="0 0 16 13" fill="none" xmlns="http://www.w3.org/2000/svg">
<g clip-path="url(#clip0_272_3677)">
<path fill-rule="evenodd" clip-rule="evenodd" d="M3.85355 0.707107L3.14645 0L0 3.14645V5.35355V7.35355V9.56066L3.14645 12.7071L3.85355 12L1 9.14645V7.64767L4.81104 8.76856C4.87128 8.84798 4.93441 8.92508 5.00029 8.99971L5 9L5.00476 9.00476C5.11239 9.12626 5.22729 9.24117 5.3488 9.3488L5.35355 9.35355L5.35385 9.35326C6.05902 9.9758 6.98539 10.3536 8 10.3536C9.01461 10.3536 9.94098 9.9758 10.6462 9.35326L10.6464 9.35355L10.6512 9.34881C10.7727 9.24118 10.8876 9.12626 10.9953 9.00475L11 9L10.9997 8.99971C11.0656 8.92508 11.1287 8.84798 11.189 8.76856L15 7.64767V9.14645L12.1464 12L12.8536 12.7071L16 9.56066V7.35355V5.35355V3.14645L12.8536 0L12.1464 0.707107L15 3.56066V5.05943L11.189 3.93854L11.1892 3.93884C10.4588 2.97566 9.30204 2.35355 8 2.35355C6.6981 2.35355 5.54147 2.97553 4.81104 3.93854L1 5.05943V3.56066L3.85355 0.707107ZM11.2053 3.96029L11.1892 3.93884C11.1946 3.94597 11.2 3.95312 11.2053 3.96029ZM10.2908 8.29076C10.7332 7.76809 11 7.09198 11 6.35355C11 5.61513 10.7332 4.93901 10.2908 4.41634L9.57996 5.12714C9.84323 5.46581 10 5.89138 10 6.35355C10 6.81573 9.84323 7.24129 9.57996 7.57996L10.2908 8.29076ZM9.22641 7.93352C8.88774 8.19678 8.46218 8.35355 8 8.35355C7.53782 8.35355 7.11226 8.19678 6.77359 7.93352L6.06279 8.64432C6.58546 9.08676 7.26157 9.35355 8 9.35355C8.73843 9.35355 9.41454 9.08676 9.93721 8.64432L9.22641 7.93352ZM5.70924 8.29076L6.42004 7.57996C6.15677 7.24129 6 6.81573 6 6.35355C6 5.89138 6.15677 5.46581 6.42004 5.12714L5.70924 4.41634C5.26679 4.93901 5 5.61513 5 6.35355C5 7.09198 5.26679 7.76809 5.70924 8.29076ZM6.06279 4.06279L6.77359 4.77359C6.77359 4.77359 6.77359 4.77359 6.77359 4.77359C7.11226 4.51032 7.53782 4.35355 8 4.35355C8.46218 4.35355 8.88774 4.51032 9.22641 4.77359L9.93721 4.06279C9.41454 3.62034 8.73843 3.35355 8 3.35355C7.26157 3.35355 6.58546 3.62034 6.06279 4.06279ZM2.5 7.04649L1 6.60531V6.10179L2.5 5.66061V7.04649ZM3 7.19355V5.51356L4.17899 5.16679C4.06266 5.54176 4 5.94034 4 6.35355C4 6.76677 4.06266 7.16535 4.17899 7.54031L3 7.19355ZM13 7.19355L11.821 7.54031C11.9373 7.16535 12 6.76677 12 6.35355C12 5.94034 11.9373 5.54176 11.821 5.16679L13 5.51356V7.19355ZM13.5 7.04649V5.66061L15 6.10179V6.60531L13.5 7.04649ZM9 6.35355C9 6.90584 8.55228 7.35355 8 7.35355C7.44772 7.35355 7 6.90584 7 6.35355C7 5.80127 7.44772 5.35355 8 5.35355C8.55228 5.35355 9 5.80127 9 6.35355Z" fill="black"/>
</g>
<defs>
<clipPath id="clip0_272_3677">
<rect width="16" height="12.7071" fill="white"/>
</clipPath>
</defs>
</svg>
