<svg width="16" height="10" viewBox="0 0 16 10" fill="none" xmlns="http://www.w3.org/2000/svg">
<path fill-rule="evenodd" clip-rule="evenodd" d="M1 2C0.447715 2 0 1.55228 0 1C0 0.447715 0.447715 0 1 0C1.55228 0 2 0.447715 2 1C2 1.12329 1.97769 1.24136 1.93689 1.35041L3.23607 2H4.08535L4.08533 2.00005C4.29124 1.41743 4.84687 1 5.5 1C6.32843 1 7 1.67157 7 2.5H9C9 1.67157 9.67157 1 10.5 1C11.1531 1 11.7087 1.4174 11.9146 2L12.8876 2L14.0959 1.42791C14.0344 1.29819 14 1.15311 14 1C14 0.447715 14.4477 0 15 0C15.5523 0 16 0.447715 16 1C16 1.39929 15.766 1.74392 15.4276 1.90422L10.6052 4.31545L11 5.5L10.8472 5.80557L15.4279 8.0959C15.7661 8.25626 16 8.60081 16 9C16 9.55228 15.5523 10 15 10C14.4477 10 14 9.55228 14 9C14 8.84689 14.0344 8.70181 14.0959 8.57208L12.8876 8L11.9146 8C11.7087 8.5826 11.1531 9 10.5 9C9.83333 9 9.26825 8.56509 9.07298 7.96351L8 8.5L6.92702 7.96351C6.73175 8.56509 6.16667 9 5.5 9C4.84689 9 4.29127 8.5826 4.08535 8H3.23606L1.93688 8.64959C1.97769 8.75863 2 8.87671 2 9C2 9.55228 1.55228 10 1 10C0.447715 10 0 9.55228 0 9C0 8.44772 0.447715 8 1 8L5.2 5.9L5 5.5L5.42857 4.21428L1 2ZM6.8237 6.79382L8 7.38197L9.1763 6.79382L9.18011 6.78674L8 6L6.81989 6.78674L6.8237 6.79382ZM10.5 8C10.2239 8 10 7.77614 10 7.5C10 7.3364 10.0786 7.19116 10.2 7.09994C10.2836 7.03719 10.3875 7 10.5 7C10.7761 7 11 7.22386 11 7.5C11 7.77614 10.7761 8 10.5 8ZM6 7.5C6 7.77614 5.77614 8 5.5 8C5.22386 8 5 7.77614 5 7.5C5 7.22386 5.22386 7 5.5 7C5.61255 7 5.71641 7.03719 5.79997 7.09994C5.92143 7.19116 6 7.3364 6 7.5ZM6.55068 6.36529L6.07967 5.42327L6.14992 5.21252L7 5H7.75V5.56575L6.55068 6.36529ZM8.25 5.56574V5H9L9.85008 5.21252L9.92033 5.42327L9.44932 6.36529L8.25 5.56574ZM10.5 3C10.3365 3 10.1913 2.92148 10.1 2.80009C10.0372 2.71651 10 2.6126 10 2.5C10 2.22386 10.2239 2 10.5 2C10.7761 2 11 2.22386 11 2.5C11 2.77614 10.7761 3 10.5 3ZM6 2.5C6 2.22386 5.77614 2 5.5 2C5.22386 2 5 2.22386 5 2.5C5 2.77614 5.22386 3 5.5 3C5.66354 3 5.80875 2.92148 5.89997 2.80009C5.96278 2.71651 6 2.6126 6 2.5ZM8 4.5H9L7.24498 3H6.72144L8 4.5ZM6.72076 3H6.71875V3.00602L6.72076 3Z" fill="black"/>
</svg>
