<svg width="16" height="16" viewBox="0 0 16 16" fill="none" xmlns="http://www.w3.org/2000/svg">
<g clip-path="url(#clip0_272_3665)">
<path d="M9.24999 5.5C9.11192 5.5 8.99999 5.61193 8.99999 5.75C8.99999 5.88807 9.11192 6 9.24999 6L10.25 6C10.3881 6 10.5 5.88807 10.5 5.75C10.5 5.61193 10.3881 5.5 10.25 5.5L9.24999 5.5Z" fill="black"/>
<path d="M5.49999 5.75C5.49999 5.61193 5.61192 5.5 5.74999 5.5H6.24999C6.38807 5.5 6.49999 5.61193 6.49999 5.75C6.49999 5.88807 6.38807 6 6.24999 6H5.74999C5.61192 6 5.49999 5.88807 5.49999 5.75Z" fill="black"/>
<path d="M6.74999 6.5C6.74999 6.36193 6.86192 6.25 6.99999 6.25H8.99999C9.13807 6.25 9.24999 6.36193 9.24999 6.5C9.24999 6.63807 9.13807 6.75 8.99999 6.75H6.99999C6.86192 6.75 6.74999 6.63807 6.74999 6.5Z" fill="black"/>
<path fill-rule="evenodd" clip-rule="evenodd" d="M7.49999 5C7.22385 5 6.99999 5.22386 6.99999 5.5C6.99999 5.77614 7.22385 6 7.49999 6H7.99999C8.55228 6 8.99999 5.55229 8.99999 5H9.99999V4.5C9.99999 4.22386 9.77614 4 9.49999 4H10.5C10.7761 4 11 3.77614 11 3.5C11 3.22386 10.7761 3 10.5 3H9.2071C8.94188 3 8.68753 3.10536 8.49999 3.29289L8.29289 3.5H7.7071L7.49999 3.29289C7.31246 3.10536 7.0581 3 6.79289 3H5.49999C5.22385 3 4.99999 3.22386 4.99999 3.5C4.99999 3.77614 5.22385 4 5.49999 4H6.4993C6.22347 4.00038 5.99999 4.22409 5.99999 4.5V5H6.99999V4.5C6.99999 4.37815 6.99999 4.28157 6.99832 4.20543L6.99999 4.20711C7.18753 4.39464 7.44188 4.5 7.7071 4.5H7.99999V5H7.49999ZM9.49999 4C9.38245 4 9.28563 4 9.20629 4.00081L9.2071 4L9.49999 4Z" fill="black"/>
<path fill-rule="evenodd" clip-rule="evenodd" d="M13.8967 5.30166C14.283 5.10851 14.7302 5.07673 15.1399 5.21331C15.4732 5.32439 15.7812 4.98959 15.6429 4.66671L15.3702 4.0305C14.8423 2.79868 13.6311 2 12.2909 2C12.029 2 11.7689 2.0307 11.5159 2.09087C10.8381 0.845336 9.51777 0 7.99999 0C6.48222 0 5.16189 0.845336 4.48413 2.09087C4.23106 2.0307 3.97099 2 3.70911 2C2.36893 2 1.1577 2.79868 0.629778 4.0305L0.35712 4.66671C0.218742 4.98959 0.526809 5.32439 0.860067 5.21331C1.26981 5.07673 1.71702 5.10851 2.10332 5.30166L2.46188 5.48094C2.63427 5.56714 2.81552 5.62675 2.99999 5.66014C3.33385 5.72055 3.67829 5.69506 3.99999 5.58573L3.99999 6.24158L3.29946 7.05493C2.77745 7.66102 2.44015 8.40407 2.32756 9.196C2.19323 10.1408 2.2427 11.0973 2.46761 12.0143C1.59561 12.4183 0.999994 13.3008 0.999994 14.3121C0.999994 15.2443 1.75569 16 2.68788 16H6.99999C7.09406 16 7.1873 15.9934 7.27913 15.9804C7.37113 15.9933 7.46539 16 7.56155 16H13.6667C14.403 16 15 15.403 15 14.6667C15 13.9274 14.6992 13.2583 14.2132 12.7753C14.5243 12.5203 14.6732 12.0849 14.5227 11.6637L13.0812 7.62738C12.8899 7.0916 12.4899 6.68272 12 6.46797L12 5.58573C12.3217 5.69506 12.6661 5.72055 13 5.66014C13.1845 5.62675 13.3657 5.56714 13.5381 5.48094L13.8967 5.30166ZM4.99999 6.52301C4.99999 6.78644 5.21355 7 5.47699 7C5.97618 7 6.46851 7.11622 6.915 7.33947L7.10557 7.43475C7.66862 7.71628 8.33137 7.71628 8.89442 7.43475L9.08499 7.33947C9.53148 7.11622 10.0238 7 10.523 7C10.7864 7 11 6.78644 11 6.52301V4.18969C11 4.18969 11 4 11.25 4H12.75C12.8881 4 13 4.11193 13 4.25C13 4.38807 12.8881 4.5 12.75 4.5H11.913L12.3218 4.63891C12.5717 4.72386 12.8489 4.70753 13.0909 4.58652L13.4495 4.40724C13.7222 4.27088 14.0137 4.18434 14.3107 4.14859C13.8912 3.44295 13.1268 3 12.2909 3C12.1072 3 11.9247 3.02154 11.7472 3.06375L11.3751 3.15222C11.1555 3.20444 10.9282 3.10304 10.8203 2.90477L10.6375 2.56884C10.4686 2.25849 10.2469 1.98157 9.9846 1.75L7.24999 1.75C7.11192 1.75 6.99999 1.63807 6.99999 1.5C6.99999 1.36193 7.11192 1.25 7.24999 1.25L9.20112 1.25C8.83317 1.08911 8.42689 1 7.99999 1C7.11235 1 6.31379 1.38528 5.7637 2L8.74999 2C8.88807 2 8.99999 2.11193 8.99999 2.25C8.99999 2.38807 8.88807 2.5 8.74999 2.5L5.40114 2.5C5.38797 2.52276 5.37509 2.54571 5.3625 2.56884L5.17971 2.90477C5.07182 3.10304 4.84446 3.20444 4.62486 3.15222L4.25279 3.06375C4.07526 3.02154 3.89282 3 3.70911 3C2.87319 3 2.10877 3.44295 1.68923 4.14858C1.98628 4.18434 2.27781 4.27088 2.55054 4.40724L2.9091 4.58652C3.15112 4.70753 3.42825 4.72386 3.67821 4.63891L4.08694 4.5H3.24999C3.11192 4.5 2.99999 4.38807 2.99999 4.25C2.99999 4.11193 3.11192 4 3.24999 4H4.74999C4.99999 4 4.99999 4.18969 4.99999 4.18969V6.52301ZM9.14396 12.8081L9.12204 12.7975L6.62656 12.5202C6.18174 13.2813 5.63591 13.9847 4.99999 14.6097L4.97618 14.6331C4.91272 14.695 4.84837 14.7562 4.78314 14.8166C4.7162 14.8786 4.64834 14.9397 4.57956 15H6.99999C7.31475 15 7.61114 14.8518 7.79999 14.6L9.14396 12.8081ZM9.43659 11.8263L10.9999 12H13.581L12.25 8.2732V8.35089C12.25 8.80769 12.1763 9.2615 12.0319 9.69486L11.7372 10.5791C11.6935 10.71 11.5519 10.7808 11.4209 10.7372C11.29 10.6935 11.2192 10.5519 11.2628 10.4209L11.5576 9.53674C11.685 9.15437 11.75 8.75395 11.75 8.35089V7.46638C11.7302 7.45329 11.71 7.44091 11.6894 7.42926C11.4191 7.77657 10.9972 8 10.523 8C10.362 8 10.202 8.01754 10.0459 8.05198L10.4818 8.7058C10.7033 9.03808 10.4651 9.48315 10.0657 9.48315H9.99999L10.4818 10.2058C10.7033 10.5381 10.4651 10.9832 10.0657 10.9832L8.99999 10.9831V11C8.99999 11.3433 9.173 11.6462 9.43659 11.8263ZM7.35759 10.9832L7.99999 10.9831V11C7.99999 11.2387 8.04181 11.4676 8.11851 11.6798L7.11662 11.5685C7.20302 11.3761 7.28339 11.1809 7.35759 10.9832ZM2.7755 12.9797C2.30982 13.2444 1.99999 13.7447 1.99999 14.3121C1.99999 14.692 2.30797 15 2.68788 15H3.7715C3.75019 14.9758 3.73142 14.9483 3.71593 14.9174L3.04425 13.5797C2.94558 13.3832 2.85596 13.183 2.7755 12.9797ZM6.08703 8.08564C6.19849 8.11757 6.30753 8.15827 6.41313 8.2075L6.26665 8.79342C5.84237 10.4906 5.12474 12.0994 4.14713 13.5476L3.93792 13.131C3.34944 11.959 3.13301 10.6352 3.3176 9.33676C3.40328 8.73415 3.65994 8.16873 4.05716 7.70753L4.3041 7.42082C4.47606 7.64512 4.7109 7.81867 4.98227 7.91511C4.71331 8.34934 4.39478 8.75166 4.03265 9.11379L3.82322 9.32322C3.72559 9.42085 3.72559 9.57914 3.82322 9.67678C3.92085 9.77441 4.07914 9.77441 4.17677 9.67678L4.3862 9.46734C4.82466 9.02889 5.20368 8.53564 5.51409 8.00031C5.53577 8.00067 5.55742 8.00135 5.57905 8.00235L5.35276 8.53369C4.97114 9.42974 4.50723 10.2885 3.96699 11.0988L3.79198 11.3613C3.7154 11.4762 3.74644 11.6314 3.86132 11.708C3.9762 11.7846 4.13142 11.7536 4.20801 11.6387L4.38301 11.3762C4.9404 10.5401 5.41904 9.6541 5.81277 8.7296L6.08703 8.08564ZM8.74999 15H13.6667C13.8508 15 14 14.8508 14 14.6667C14 13.7462 13.2538 13 12.3333 13H10.25L8.74999 15ZM7.99999 8.98315H8.46481L9.13148 9.98315H7.99999V8.98315Z" fill="black"/>
</g>
<defs>
<clipPath id="clip0_272_3665">
<rect width="15.3536" height="16" fill="white" transform="translate(0.323181)"/>
</clipPath>
</defs>
</svg>
